<svg xmlns="http://www.w3.org/2000/svg" xmlns:xlink="http://www.w3.org/1999/xlink" width="180" zoomAndPan="magnify" viewBox="0 0 1874.88 374.999991" height="35" preserveAspectRatio="xMidYMid meet" version="1.0"><defs><g/><clipPath id="id1"><path d="M 52 46 L 511 46 L 511 338.242188 L 52 338.242188 Z M 52 46 " clip-rule="nonzero"/></clipPath><clipPath id="id2"><path d="M 186 37.507812 L 245 37.507812 L 245 335 L 186 335 Z M 186 37.507812 " clip-rule="nonzero"/></clipPath><clipPath id="id3"><path d="M 319 37.507812 L 377 37.507812 L 377 335 L 319 335 Z M 319 37.507812 " clip-rule="nonzero"/></clipPath></defs><g clip-path="url(#id1)"><path fill="#ecb0e1" d="M 510.875 210.457031 L 510.875 174.105469 C 501.703125 173.738281 494.734375 171.902344 489.964844 168.230469 C 485.199219 164.558594 482.261719 159.417969 480.429688 152.441406 C 478.59375 145.464844 477.859375 133.714844 477.859375 117.558594 C 477.859375 100.300781 477.128906 87.816406 475.292969 80.105469 C 473.457031 72.394531 470.523438 66.152344 465.753906 61.011719 C 460.988281 56.238281 454.75 52.566406 447.046875 49.992188 C 439.34375 47.789062 428.707031 46.320312 415.132812 46.320312 L 407.0625 46.320312 L 407.0625 82.675781 C 420.636719 82.675781 429.074219 84.144531 432.742188 86.714844 C 436.410156 89.285156 437.875 95.527344 437.875 104.707031 C 437.875 132.980469 439.710938 152.808594 443.011719 164.191406 C 446.3125 175.574219 454.382812 184.753906 466.488281 192.097656 C 457.316406 197.238281 449.980469 204.582031 445.214844 214.863281 C 440.445312 224.777344 437.875 246.441406 437.875 279.855469 C 437.875 287.933594 436.777344 292.707031 434.574219 295.277344 C 432.375 297.480469 429.804688 299.316406 427.238281 300.417969 C 424.671875 301.519531 418.066406 301.886719 407.0625 301.886719 L 407.0625 338.242188 L 415.132812 338.242188 C 435.675781 338.242188 449.25 335.671875 456.585938 330.894531 C 463.921875 325.753906 469.058594 320.246094 472.359375 313.636719 C 475.660156 307.027344 477.492188 291.972656 477.492188 267.738281 C 477.492188 251.582031 478.226562 239.832031 480.0625 232.855469 C 481.894531 225.878906 484.832031 220.371094 489.597656 216.699219 C 494.367188 213.027344 501.335938 210.824219 510.507812 210.457031 Z M 52.339844 210.457031 C 61.507812 210.824219 68.480469 213.027344 73.246094 216.699219 C 78.015625 220.371094 80.953125 225.511719 82.785156 232.488281 C 84.621094 239.464844 85.351562 251.214844 85.351562 267.738281 C 85.351562 291.238281 87.1875 306.660156 90.488281 313.636719 C 93.789062 320.613281 99.660156 326.488281 107.363281 331.261719 C 115.066406 336.039062 128.640625 338.242188 148.082031 338.242188 L 156.152344 338.242188 L 156.152344 301.886719 C 143.3125 301.886719 135.242188 300.417969 131.207031 297.480469 C 127.171875 294.542969 125.335938 288.667969 125.335938 279.855469 C 125.335938 250.847656 123.503906 230.652344 119.835938 219.269531 C 116.167969 207.886719 108.464844 199.074219 97.089844 192.464844 C 109.5625 185.121094 117.265625 175.574219 120.570312 163.824219 C 123.871094 152.074219 125.335938 132.613281 125.335938 105.074219 C 125.335938 95.527344 127.171875 89.652344 130.839844 87.082031 C 134.507812 84.511719 142.945312 83.042969 156.152344 83.042969 L 156.152344 46.6875 L 148.082031 46.6875 C 130.472656 46.6875 117.265625 48.890625 108.464844 53.300781 C 99.660156 57.707031 93.421875 64.316406 90.488281 73.128906 C 87.1875 81.941406 85.71875 96.628906 85.71875 117.558594 C 85.71875 133.714844 84.988281 145.097656 83.152344 152.074219 C 81.316406 159.050781 78.382812 164.558594 73.613281 168.230469 C 68.847656 171.902344 61.875 174.105469 52.707031 174.472656 L 52.707031 210.824219 Z M 52.339844 210.457031 " fill-opacity="1" fill-rule="nonzero"/></g><g clip-path="url(#id2)"><path fill="#f3fcf0" d="M 201.269531 320.246094 L 229.882812 320.246094 C 237.585938 320.246094 244.191406 326.488281 244.191406 334.570312 L 244.191406 51.832031 C 244.191406 44.117188 237.953125 37.507812 229.882812 37.507812 L 201.269531 37.507812 C 193.566406 37.507812 186.964844 43.75 186.964844 51.832031 L 186.964844 334.570312 C 186.964844 326.855469 193.199219 320.246094 201.269531 320.246094 Z M 201.269531 320.246094 " fill-opacity="1" fill-rule="evenodd"/></g><path fill="#adcaeb" d="M 268.769531 316.574219 L 297.378906 316.574219 C 305.085938 316.574219 311.6875 322.816406 311.6875 330.894531 L 311.6875 117.191406 C 311.6875 109.480469 305.449219 102.871094 297.378906 102.871094 L 268.769531 102.871094 C 261.066406 102.871094 254.460938 109.113281 254.460938 117.191406 L 254.460938 330.894531 C 254.460938 338.609375 260.699219 316.574219 268.769531 316.574219 Z M 268.769531 316.574219 " fill-opacity="1" fill-rule="evenodd"/><g clip-path="url(#id3)"><path fill="#f3fcf0" d="M 333.695312 320.246094 L 362.308594 320.246094 C 370.011719 320.246094 376.617188 326.488281 376.617188 334.570312 L 376.617188 51.832031 C 376.617188 44.117188 370.378906 37.507812 362.308594 37.507812 L 333.695312 37.507812 C 325.992188 37.507812 319.390625 43.75 319.390625 51.832031 L 319.390625 334.570312 C 319.390625 326.855469 325.625 320.246094 333.695312 320.246094 Z M 333.695312 320.246094 " fill-opacity="1" fill-rule="evenodd"/></g><g fill="#c9ddff" fill-opacity="1"><g transform="translate(562.651765, 218.287166)"><g><path d="M 15.15625 -141.875 L 49.71875 -141.875 L 49.71875 -26.265625 L 92.765625 -26.265625 L 92.765625 0 L 15.15625 0 Z M 15.15625 -141.875 "/></g></g></g><g fill="#c9ddff" fill-opacity="1"><g transform="translate(654.400096, 218.287166)"><g><path d="M 46.6875 -125.5 C 42.78125 -121.59375 37.992188 -119.640625 32.328125 -119.640625 C 26.671875 -119.640625 21.890625 -121.59375 17.984375 -125.5 C 14.078125 -129.40625 12.125 -134.21875 12.125 -139.9375 C 12.125 -145.664062 14.078125 -150.484375 17.984375 -154.390625 C 21.890625 -158.304688 26.671875 -160.265625 32.328125 -160.265625 C 37.992188 -160.265625 42.78125 -158.304688 46.6875 -154.390625 C 50.59375 -150.484375 52.546875 -145.664062 52.546875 -139.9375 C 52.546875 -134.21875 50.59375 -129.40625 46.6875 -125.5 Z M 15.15625 0 L 15.15625 -112.765625 L 49.71875 -112.765625 L 49.71875 0 Z M 15.15625 0 "/></g></g></g><g fill="#c9ddff" fill-opacity="1"><g transform="translate(714.21832, 218.287166)"><g><path d="M 91.546875 -35.671875 C 96.535156 -40.453125 99.03125 -47.285156 99.03125 -56.171875 C 99.03125 -65.066406 96.535156 -71.941406 91.546875 -76.796875 C 86.566406 -81.648438 80.84375 -84.078125 74.375 -84.078125 C 67.90625 -84.078125 62.175781 -81.679688 57.1875 -76.890625 C 52.207031 -72.109375 49.71875 -65.269531 49.71875 -56.375 C 49.71875 -47.488281 52.207031 -40.617188 57.1875 -35.765625 C 62.175781 -30.921875 67.90625 -28.5 74.375 -28.5 C 80.84375 -28.5 86.566406 -30.890625 91.546875 -35.671875 Z M 49.71875 -98.015625 C 57.394531 -108.660156 68.40625 -113.984375 82.75 -113.984375 C 97.101562 -113.984375 109.265625 -108.554688 119.234375 -97.703125 C 129.203125 -86.859375 134.1875 -73.015625 134.1875 -56.171875 C 134.1875 -39.335938 129.203125 -25.53125 119.234375 -14.75 C 109.265625 -3.96875 97.207031 1.421875 83.0625 1.421875 C 68.914062 1.421875 57.800781 -4.507812 49.71875 -16.375 L 49.71875 0 L 15.15625 0 L 15.15625 -149.546875 L 49.71875 -149.546875 Z M 49.71875 -98.015625 "/></g></g></g><g fill="#c9ddff" fill-opacity="1"><g transform="translate(850.224195, 218.287166)"><g><path d="M 49.71875 -149.546875 L 49.71875 -96.203125 C 56.851562 -108.054688 68.238281 -113.984375 83.875 -113.984375 C 96.800781 -113.984375 107.269531 -109.671875 115.28125 -101.046875 C 123.300781 -92.421875 127.3125 -80.695312 127.3125 -65.875 L 127.3125 0 L 92.96875 0 L 92.96875 -61.234375 C 92.96875 -68.503906 91.046875 -74.128906 87.203125 -78.109375 C 83.359375 -82.085938 78.066406 -84.078125 71.328125 -84.078125 C 64.597656 -84.078125 59.3125 -82.085938 55.46875 -78.109375 C 51.632812 -74.128906 49.71875 -68.503906 49.71875 -61.234375 L 49.71875 0 L 15.15625 0 L 15.15625 -149.546875 Z M 49.71875 -149.546875 "/></g></g></g><g fill="#c9ddff" fill-opacity="1"><g transform="translate(986.634248, 218.287166)"><g><path d="M 91.75 -112.765625 L 126.3125 -112.765625 L 126.3125 0 L 91.75 0 L 91.75 -16.578125 C 84.613281 -4.710938 73.226562 1.21875 57.59375 1.21875 C 44.664062 1.21875 34.191406 -3.09375 26.171875 -11.71875 C 18.148438 -20.34375 14.140625 -32.066406 14.140625 -46.890625 L 14.140625 -112.765625 L 48.5 -112.765625 L 48.5 -51.53125 C 48.5 -44.257812 50.414062 -38.632812 54.25 -34.65625 C 58.09375 -30.6875 63.382812 -28.703125 70.125 -28.703125 C 76.863281 -28.703125 82.148438 -30.6875 85.984375 -34.65625 C 89.828125 -38.632812 91.75 -44.257812 91.75 -51.53125 Z M 91.75 -112.765625 "/></g></g></g><g fill="#c9ddff" fill-opacity="1"><g transform="translate(1123.044302, 218.287166)"><g><path d="M 91.546875 -35.671875 C 96.535156 -40.453125 99.03125 -47.285156 99.03125 -56.171875 C 99.03125 -65.066406 96.535156 -71.941406 91.546875 -76.796875 C 86.566406 -81.648438 80.84375 -84.078125 74.375 -84.078125 C 67.90625 -84.078125 62.175781 -81.679688 57.1875 -76.890625 C 52.207031 -72.109375 49.71875 -65.269531 49.71875 -56.375 C 49.71875 -47.488281 52.207031 -40.617188 57.1875 -35.765625 C 62.175781 -30.921875 67.90625 -28.5 74.375 -28.5 C 80.84375 -28.5 86.566406 -30.890625 91.546875 -35.671875 Z M 49.71875 -98.015625 C 57.394531 -108.660156 68.40625 -113.984375 82.75 -113.984375 C 97.101562 -113.984375 109.265625 -108.554688 119.234375 -97.703125 C 129.203125 -86.859375 134.1875 -73.015625 134.1875 -56.171875 C 134.1875 -39.335938 129.203125 -25.53125 119.234375 -14.75 C 109.265625 -3.96875 97.207031 1.421875 83.0625 1.421875 C 68.914062 1.421875 57.800781 -4.507812 49.71875 -16.375 L 49.71875 0 L 15.15625 0 L 15.15625 -149.546875 L 49.71875 -149.546875 Z M 49.71875 -98.015625 "/></g></g></g><g fill="#ecb0e1" fill-opacity="1"><g transform="translate(576.587504, 326.624309)"><g><path d="M 50.90625 -62.796875 L 30.453125 -23.6875 L 30.453125 0 L 22.25 0 L 22.25 -23.6875 L 1.71875 -62.796875 L 10.8125 -62.796875 L 26.3125 -31 L 41.796875 -62.796875 Z M 50.90625 -62.796875 "/></g></g></g><g fill="#ecb0e1" fill-opacity="1"><g transform="translate(671.366747, 326.624309)"><g><path d="M 28.46875 0.8125 C 23.84375 0.8125 19.648438 -0.238281 15.890625 -2.34375 C 12.140625 -4.445312 9.195312 -7.4375 7.0625 -11.3125 C 4.9375 -15.1875 3.875 -19.675781 3.875 -24.78125 C 3.875 -29.820312 4.96875 -34.28125 7.15625 -38.15625 C 9.351562 -42.03125 12.34375 -45.003906 16.125 -47.078125 C 19.90625 -49.148438 24.140625 -50.1875 28.828125 -50.1875 C 33.515625 -50.1875 37.75 -49.148438 41.53125 -47.078125 C 45.3125 -45.003906 48.296875 -42.046875 50.484375 -38.203125 C 52.679688 -34.359375 53.78125 -29.882812 53.78125 -24.78125 C 53.78125 -19.675781 52.65625 -15.1875 50.40625 -11.3125 C 48.15625 -7.4375 45.109375 -4.445312 41.265625 -2.34375 C 37.421875 -0.238281 33.15625 0.8125 28.46875 0.8125 Z M 28.46875 -6.390625 C 31.414062 -6.390625 34.175781 -7.082031 36.75 -8.46875 C 39.332031 -9.851562 41.421875 -11.925781 43.015625 -14.6875 C 44.609375 -17.445312 45.40625 -20.8125 45.40625 -24.78125 C 45.40625 -28.738281 44.625 -32.097656 43.0625 -34.859375 C 41.5 -37.628906 39.457031 -39.6875 36.9375 -41.03125 C 34.414062 -42.382812 31.679688 -43.0625 28.734375 -43.0625 C 25.734375 -43.0625 22.984375 -42.382812 20.484375 -41.03125 C 17.992188 -39.6875 16 -37.628906 14.5 -34.859375 C 13 -32.097656 12.25 -28.738281 12.25 -24.78125 C 12.25 -20.75 12.984375 -17.351562 14.453125 -14.59375 C 15.929688 -11.832031 17.898438 -9.773438 20.359375 -8.421875 C 22.828125 -7.066406 25.53125 -6.390625 28.46875 -6.390625 Z M 28.46875 -6.390625 "/></g></g></g><g fill="#ecb0e1" fill-opacity="1"><g transform="translate(771.190931, 326.624309)"><g><path d="M 50.71875 -49.375 L 50.71875 0 L 42.53125 0 L 42.53125 -7.296875 C 40.96875 -4.773438 38.785156 -2.804688 35.984375 -1.390625 C 33.191406 0.015625 30.117188 0.71875 26.765625 0.71875 C 22.910156 0.71875 19.453125 -0.0703125 16.390625 -1.65625 C 13.328125 -3.25 10.910156 -5.640625 9.140625 -8.828125 C 7.367188 -12.015625 6.484375 -15.890625 6.484375 -20.453125 L 6.484375 -49.375 L 14.59375 -49.375 L 14.59375 -21.53125 C 14.59375 -16.664062 15.820312 -12.925781 18.28125 -10.3125 C 20.75 -7.695312 24.113281 -6.390625 28.375 -6.390625 C 32.757812 -6.390625 36.210938 -7.738281 38.734375 -10.4375 C 41.265625 -13.144531 42.53125 -17.082031 42.53125 -22.25 L 42.53125 -49.375 Z M 50.71875 -49.375 "/></g></g></g><g fill="#ecb0e1" fill-opacity="1"><g transform="translate(871.015104, 326.624309)"><g><path d="M 15.140625 -41.359375 C 16.578125 -44.179688 18.628906 -46.367188 21.296875 -47.921875 C 23.972656 -49.484375 27.234375 -50.265625 31.078125 -50.265625 L 31.078125 -41.796875 L 28.921875 -41.796875 C 19.734375 -41.796875 15.140625 -36.8125 15.140625 -26.84375 L 15.140625 0 L 6.9375 0 L 6.9375 -49.375 L 15.140625 -49.375 Z M 15.140625 -41.359375 "/></g></g></g><g fill="#ecb0e1" fill-opacity="1"><g transform="translate(946.785772, 326.624309)"><g/></g></g><g fill="#ecb0e1" fill-opacity="1"><g transform="translate(1013.007094, 326.624309)"><g><path d="M 15.140625 -6.671875 L 37.125 -6.671875 L 37.125 0 L 6.9375 0 L 6.9375 -62.796875 L 15.140625 -62.796875 Z M 15.140625 -6.671875 "/></g></g></g><g fill="#ecb0e1" fill-opacity="1"><g transform="translate(1094.09295, 326.624309)"><g><path d="M 11.171875 -57.390625 C 9.609375 -57.390625 8.285156 -57.929688 7.203125 -59.015625 C 6.117188 -60.097656 5.578125 -61.414062 5.578125 -62.96875 C 5.578125 -64.53125 6.117188 -65.851562 7.203125 -66.9375 C 8.285156 -68.019531 9.609375 -68.5625 11.171875 -68.5625 C 12.671875 -68.5625 13.945312 -68.019531 15 -66.9375 C 16.050781 -65.851562 16.578125 -64.53125 16.578125 -62.96875 C 16.578125 -61.414062 16.050781 -60.097656 15 -59.015625 C 13.945312 -57.929688 12.671875 -57.390625 11.171875 -57.390625 Z M 15.140625 -49.375 L 15.140625 0 L 6.9375 0 L 6.9375 -49.375 Z M 15.140625 -49.375 "/></g></g></g><g fill="#ecb0e1" fill-opacity="1"><g transform="translate(1158.422432, 326.624309)"><g><path d="M 15.140625 -40.1875 C 16.816406 -43.125 19.273438 -45.523438 22.515625 -47.390625 C 25.765625 -49.253906 29.460938 -50.1875 33.609375 -50.1875 C 38.046875 -50.1875 42.035156 -49.132812 45.578125 -47.03125 C 49.128906 -44.925781 51.925781 -41.96875 53.96875 -38.15625 C 56.007812 -34.34375 57.03125 -29.910156 57.03125 -24.859375 C 57.03125 -19.878906 56.007812 -15.4375 53.96875 -11.53125 C 51.925781 -7.625 49.117188 -4.585938 45.546875 -2.421875 C 41.972656 -0.265625 37.992188 0.8125 33.609375 0.8125 C 29.335938 0.8125 25.59375 -0.117188 22.375 -1.984375 C 19.164062 -3.847656 16.753906 -6.21875 15.140625 -9.09375 L 15.140625 0 L 6.9375 0 L 6.9375 -66.671875 L 15.140625 -66.671875 Z M 48.65625 -24.859375 C 48.65625 -28.585938 47.898438 -31.832031 46.390625 -34.59375 C 44.890625 -37.351562 42.863281 -39.453125 40.3125 -40.890625 C 37.757812 -42.335938 34.953125 -43.0625 31.890625 -43.0625 C 28.890625 -43.0625 26.113281 -42.328125 23.5625 -40.859375 C 21.007812 -39.390625 18.96875 -37.253906 17.4375 -34.453125 C 15.90625 -31.660156 15.140625 -28.4375 15.140625 -24.78125 C 15.140625 -21.050781 15.90625 -17.789062 17.4375 -15 C 18.96875 -12.207031 21.007812 -10.070312 23.5625 -8.59375 C 26.113281 -7.125 28.890625 -6.390625 31.890625 -6.390625 C 34.953125 -6.390625 37.757812 -7.125 40.3125 -8.59375 C 42.863281 -10.070312 44.890625 -12.207031 46.390625 -15 C 47.898438 -17.789062 48.65625 -21.078125 48.65625 -24.859375 Z M 48.65625 -24.859375 "/></g></g></g><g fill="#ecb0e1" fill-opacity="1"><g transform="translate(1261.489791, 326.624309)"><g><path d="M 15.140625 -41.359375 C 16.578125 -44.179688 18.628906 -46.367188 21.296875 -47.921875 C 23.972656 -49.484375 27.234375 -50.265625 31.078125 -50.265625 L 31.078125 -41.796875 L 28.921875 -41.796875 C 19.734375 -41.796875 15.140625 -36.8125 15.140625 -26.84375 L 15.140625 0 L 6.9375 0 L 6.9375 -49.375 L 15.140625 -49.375 Z M 15.140625 -41.359375 "/></g></g></g><g fill="#ecb0e1" fill-opacity="1"><g transform="translate(1337.260436, 326.624309)"><g><path d="M 3.875 -24.859375 C 3.875 -29.910156 4.894531 -34.34375 6.9375 -38.15625 C 8.976562 -41.96875 11.785156 -44.925781 15.359375 -47.03125 C 18.929688 -49.132812 22.910156 -50.1875 27.296875 -50.1875 C 31.617188 -50.1875 35.367188 -49.253906 38.546875 -47.390625 C 41.734375 -45.523438 44.109375 -43.179688 45.671875 -40.359375 L 45.671875 -49.375 L 53.96875 -49.375 L 53.96875 0 L 45.671875 0 L 45.671875 -9.1875 C 44.054688 -6.300781 41.640625 -3.910156 38.421875 -2.015625 C 35.210938 -0.128906 31.472656 0.8125 27.203125 0.8125 C 22.816406 0.8125 18.851562 -0.265625 15.3125 -2.421875 C 11.769531 -4.585938 8.976562 -7.625 6.9375 -11.53125 C 4.894531 -15.4375 3.875 -19.878906 3.875 -24.859375 Z M 45.671875 -24.78125 C 45.671875 -28.5 44.921875 -31.738281 43.421875 -34.5 C 41.921875 -37.269531 39.894531 -39.390625 37.34375 -40.859375 C 34.789062 -42.328125 31.984375 -43.0625 28.921875 -43.0625 C 25.859375 -43.0625 23.0625 -42.335938 20.53125 -40.890625 C 18.007812 -39.453125 16 -37.351562 14.5 -34.59375 C 13 -31.832031 12.25 -28.585938 12.25 -24.859375 C 12.25 -21.078125 13 -17.789062 14.5 -15 C 16 -12.207031 18.007812 -10.070312 20.53125 -8.59375 C 23.0625 -7.125 25.859375 -6.390625 28.921875 -6.390625 C 31.984375 -6.390625 34.789062 -7.125 37.34375 -8.59375 C 39.894531 -10.070312 41.921875 -12.207031 43.421875 -15 C 44.921875 -17.789062 45.671875 -21.050781 45.671875 -24.78125 Z M 45.671875 -24.78125 "/></g></g></g><g fill="#ecb0e1" fill-opacity="1"><g transform="translate(1440.327749, 326.624309)"><g><path d="M 15.140625 -41.359375 C 16.578125 -44.179688 18.628906 -46.367188 21.296875 -47.921875 C 23.972656 -49.484375 27.234375 -50.265625 31.078125 -50.265625 L 31.078125 -41.796875 L 28.921875 -41.796875 C 19.734375 -41.796875 15.140625 -36.8125 15.140625 -26.84375 L 15.140625 0 L 6.9375 0 L 6.9375 -49.375 L 15.140625 -49.375 Z M 15.140625 -41.359375 "/></g></g></g><g fill="#ecb0e1" fill-opacity="1"><g transform="translate(1516.098439, 326.624309)"><g><path d="M 49.46875 -49.375 L 19.734375 23.25 L 11.265625 23.25 L 20.984375 -0.546875 L 1.078125 -49.375 L 10.1875 -49.375 L 25.671875 -9.375 L 41 -49.375 Z M 49.46875 -49.375 "/></g></g></g></svg>