<svg xmlns="http://www.w3.org/2000/svg" xmlns:xlink="http://www.w3.org/1999/xlink" width="130" zoomAndPan="magnify" viewBox="0 0 370 374.999991" height="50" preserveAspectRatio="xMidYMid meet" version="1.0"><defs><clipPath id="id1"><path d="M 12 79 L 363 79 L 363 301.875 L 12 301.875 Z M 12 79 " clip-rule="nonzero"/></clipPath><clipPath id="id2"><path d="M 115 73.125 L 160 73.125 L 160 300 L 115 300 Z M 115 73.125 " clip-rule="nonzero"/></clipPath><clipPath id="id3"><path d="M 216 73.125 L 261 73.125 L 261 300 L 216 300 Z M 216 73.125 " clip-rule="nonzero"/></clipPath></defs><g clip-path="url(#id1)"><path fill="#ecb0e1" d="M 362.335938 204.679688 L 362.335938 177.027344 C 355.347656 176.75 350.039062 175.351562 346.40625 172.558594 C 342.769531 169.765625 340.535156 165.855469 339.136719 160.546875 C 337.738281 155.242188 337.179688 146.304688 337.179688 134.015625 C 337.179688 120.886719 336.621094 111.390625 335.222656 105.527344 C 333.828125 99.660156 331.589844 94.910156 327.957031 91 C 324.324219 87.371094 319.570312 84.578125 313.703125 82.621094 C 307.832031 80.945312 299.726562 79.828125 289.382812 79.828125 L 283.234375 79.828125 L 283.234375 107.480469 C 293.578125 107.480469 300.003906 108.597656 302.800781 110.554688 C 305.597656 112.507812 306.714844 117.257812 306.714844 124.238281 C 306.714844 145.746094 308.113281 160.828125 310.628906 169.484375 C 313.144531 178.144531 319.292969 185.128906 328.515625 190.714844 C 321.527344 194.625 315.9375 200.210938 312.304688 208.03125 C 308.671875 215.570312 306.714844 232.050781 306.714844 257.46875 C 306.714844 263.613281 305.875 267.242188 304.199219 269.199219 C 302.519531 270.875 300.566406 272.269531 298.609375 273.109375 C 296.652344 273.945312 291.621094 274.226562 283.234375 274.226562 L 283.234375 301.875 L 289.382812 301.875 C 305.035156 301.875 315.378906 299.921875 320.96875 296.289062 C 326.558594 292.378906 330.472656 288.191406 332.988281 283.164062 C 335.503906 278.136719 336.902344 266.683594 336.902344 248.25 C 336.902344 235.960938 337.460938 227.023438 338.859375 221.714844 C 340.253906 216.410156 342.492188 212.21875 346.125 209.425781 C 349.757812 206.632812 355.070312 204.957031 362.058594 204.679688 Z M 12.949219 204.679688 C 19.9375 204.957031 25.246094 206.632812 28.882812 209.425781 C 32.515625 212.21875 34.75 216.128906 36.148438 221.4375 C 37.546875 226.742188 38.105469 235.679688 38.105469 248.25 C 38.105469 266.125 39.503906 277.855469 42.019531 283.164062 C 44.535156 288.46875 49.007812 292.9375 54.875 296.570312 C 60.746094 300.199219 71.085938 301.875 85.902344 301.875 L 92.050781 301.875 L 92.050781 274.226562 C 82.265625 274.226562 76.117188 273.109375 73.042969 270.875 C 69.96875 268.640625 68.570312 264.171875 68.570312 257.46875 C 68.570312 235.402344 67.175781 220.039062 64.378906 211.382812 C 61.582031 202.722656 55.714844 196.019531 47.050781 190.992188 C 56.550781 185.40625 62.421875 178.144531 64.9375 169.207031 C 67.453125 160.269531 68.570312 145.464844 68.570312 124.519531 C 68.570312 117.257812 69.96875 112.789062 72.765625 110.832031 C 75.558594 108.878906 81.988281 107.761719 92.050781 107.761719 L 92.050781 80.109375 L 85.902344 80.109375 C 72.484375 80.109375 62.421875 81.785156 55.714844 85.136719 C 49.007812 88.488281 44.253906 93.515625 42.019531 100.21875 C 39.503906 106.921875 38.382812 118.09375 38.382812 134.015625 C 38.382812 146.304688 37.824219 154.960938 36.429688 160.269531 C 35.03125 165.574219 32.792969 169.765625 29.160156 172.558594 C 25.527344 175.351562 20.214844 177.027344 13.230469 177.308594 L 13.230469 204.957031 Z M 12.949219 204.679688 " fill-opacity="1" fill-rule="nonzero"/></g><g clip-path="url(#id2)"><path fill="#f3fcf0" d="M 126.429688 288.191406 L 148.230469 288.191406 C 154.101562 288.191406 159.132812 292.9375 159.132812 299.082031 L 159.132812 84.019531 C 159.132812 78.152344 154.382812 73.125 148.230469 73.125 L 126.429688 73.125 C 120.558594 73.125 115.527344 77.875 115.527344 84.019531 L 115.527344 299.082031 C 115.527344 293.21875 120.28125 288.191406 126.429688 288.191406 Z M 126.429688 288.191406 " fill-opacity="1" fill-rule="evenodd"/></g><path fill="#adcaeb" d="M 177.859375 285.398438 L 199.660156 285.398438 C 205.53125 285.398438 210.5625 290.144531 210.5625 296.289062 L 210.5625 133.734375 C 210.5625 127.871094 205.8125 122.84375 199.660156 122.84375 L 177.859375 122.84375 C 171.992188 122.84375 166.960938 127.589844 166.960938 133.734375 L 166.960938 296.289062 C 166.960938 302.15625 171.710938 285.398438 177.859375 285.398438 Z M 177.859375 285.398438 " fill-opacity="1" fill-rule="evenodd"/><g clip-path="url(#id3)"><path fill="#f3fcf0" d="M 227.332031 288.191406 L 249.136719 288.191406 C 255.003906 288.191406 260.035156 292.9375 260.035156 299.082031 L 260.035156 84.019531 C 260.035156 78.152344 255.285156 73.125 249.136719 73.125 L 227.332031 73.125 C 221.464844 73.125 216.433594 77.875 216.433594 84.019531 L 216.433594 299.082031 C 216.433594 293.21875 221.183594 288.191406 227.332031 288.191406 Z M 227.332031 288.191406 " fill-opacity="1" fill-rule="evenodd"/></g></svg>