<svg xmlns="http://www.w3.org/2000/svg" xmlns:xlink="http://www.w3.org/1999/xlink" width="110" zoomAndPan="magnify" viewBox="0 0 375 374.999991" height="110" preserveAspectRatio="xMidYMid meet" version="1.0"><defs><g/><clipPath id="id1"><path d="M 50 27 L 325 27 L 325 201.796875 L 50 201.796875 Z M 50 27 " clip-rule="nonzero"/></clipPath><clipPath id="id2"><path d="M 131 22.546875 L 166 22.546875 L 166 200 L 131 200 Z M 131 22.546875 " clip-rule="nonzero"/></clipPath><clipPath id="id3"><path d="M 210 22.546875 L 245 22.546875 L 245 200 L 210 200 Z M 210 22.546875 " clip-rule="nonzero"/></clipPath></defs><g clip-path="url(#id1)"><path fill="#ecb0e1" d="M 324.175781 125.632812 L 324.175781 103.964844 C 318.707031 103.746094 314.554688 102.652344 311.710938 100.460938 C 308.867188 98.273438 307.121094 95.210938 306.027344 91.050781 C 304.933594 86.894531 304.496094 79.890625 304.496094 70.257812 C 304.496094 59.972656 304.058594 52.53125 302.964844 47.933594 C 301.871094 43.339844 300.125 39.617188 297.28125 36.554688 C 294.4375 33.707031 290.722656 31.519531 286.128906 29.988281 C 281.539062 28.675781 275.199219 27.800781 267.109375 27.800781 L 262.296875 27.800781 L 262.296875 49.464844 C 270.386719 49.464844 275.417969 50.34375 277.601562 51.875 C 279.789062 53.40625 280.664062 57.128906 280.664062 62.597656 C 280.664062 79.453125 281.757812 91.269531 283.726562 98.054688 C 285.691406 104.839844 290.503906 110.3125 297.71875 114.6875 C 292.253906 117.753906 287.878906 122.128906 285.035156 128.257812 C 282.195312 134.167969 280.664062 147.082031 280.664062 166.996094 C 280.664062 171.8125 280.007812 174.65625 278.695312 176.1875 C 277.382812 177.503906 275.855469 178.597656 274.324219 179.253906 C 272.792969 179.910156 268.859375 180.128906 262.296875 180.128906 L 262.296875 201.796875 L 267.109375 201.796875 C 279.351562 201.796875 287.441406 200.265625 291.816406 197.417969 C 296.1875 194.355469 299.25 191.070312 301.214844 187.132812 C 303.183594 183.191406 304.277344 174.21875 304.277344 159.773438 C 304.277344 150.144531 304.714844 143.140625 305.808594 138.980469 C 306.902344 134.824219 308.648438 131.539062 311.492188 129.351562 C 314.335938 127.164062 318.488281 125.851562 323.957031 125.632812 Z M 50.871094 125.632812 C 56.335938 125.851562 60.492188 127.164062 63.332031 129.351562 C 66.175781 131.539062 67.925781 134.605469 69.019531 138.761719 C 70.113281 142.921875 70.550781 149.925781 70.550781 159.773438 C 70.550781 173.78125 71.640625 182.972656 73.609375 187.132812 C 75.578125 191.289062 79.074219 194.792969 83.667969 197.636719 C 88.257812 200.484375 96.347656 201.796875 107.9375 201.796875 L 112.746094 201.796875 L 112.746094 180.128906 C 105.09375 180.128906 100.285156 179.253906 97.878906 177.503906 C 95.472656 175.75 94.382812 172.25 94.382812 166.996094 C 94.382812 149.707031 93.289062 137.667969 91.101562 130.882812 C 88.914062 124.097656 84.324219 118.847656 77.546875 114.90625 C 84.980469 110.53125 89.570312 104.839844 91.539062 97.835938 C 93.507812 90.832031 94.382812 79.230469 94.382812 62.816406 C 94.382812 57.128906 95.472656 53.625 97.660156 52.09375 C 99.847656 50.5625 104.875 49.6875 112.746094 49.6875 L 112.746094 28.019531 L 107.9375 28.019531 C 97.441406 28.019531 89.570312 29.332031 84.324219 31.957031 C 79.074219 34.585938 75.359375 38.523438 73.609375 43.777344 C 71.640625 49.027344 70.769531 57.785156 70.769531 70.257812 C 70.769531 79.890625 70.332031 86.671875 69.238281 90.832031 C 68.144531 94.992188 66.394531 98.273438 63.550781 100.460938 C 60.710938 102.652344 56.554688 103.964844 51.089844 104.183594 L 51.089844 125.851562 Z M 50.871094 125.632812 " fill-opacity="1" fill-rule="nonzero"/></g><g clip-path="url(#id2)"><path fill="#f3fcf0" d="M 139.640625 191.070312 L 156.695312 191.070312 C 161.285156 191.070312 165.222656 194.792969 165.222656 199.609375 L 165.222656 31.082031 C 165.222656 26.484375 161.503906 22.546875 156.695312 22.546875 L 139.640625 22.546875 C 135.046875 22.546875 131.113281 26.265625 131.113281 31.082031 L 131.113281 199.609375 C 131.113281 195.011719 134.828125 191.070312 139.640625 191.070312 Z M 139.640625 191.070312 " fill-opacity="1" fill-rule="evenodd"/></g><path fill="#adcaeb" d="M 179.871094 188.882812 L 196.925781 188.882812 C 201.515625 188.882812 205.453125 192.605469 205.453125 197.417969 L 205.453125 70.039062 C 205.453125 65.445312 201.734375 61.503906 196.925781 61.503906 L 179.871094 61.503906 C 175.277344 61.503906 171.34375 65.226562 171.34375 70.039062 L 171.34375 197.417969 C 171.34375 202.015625 175.058594 188.882812 179.871094 188.882812 Z M 179.871094 188.882812 " fill-opacity="1" fill-rule="evenodd"/><g clip-path="url(#id3)"><path fill="#f3fcf0" d="M 218.570312 191.070312 L 235.625 191.070312 C 240.214844 191.070312 244.152344 194.792969 244.152344 199.609375 L 244.152344 31.082031 C 244.152344 26.484375 240.433594 22.546875 235.625 22.546875 L 218.570312 22.546875 C 213.976562 22.546875 210.042969 26.265625 210.042969 31.082031 L 210.042969 199.609375 C 210.042969 195.011719 213.757812 191.070312 218.570312 191.070312 Z M 218.570312 191.070312 " fill-opacity="1" fill-rule="evenodd"/></g><g fill="#c9ddff" fill-opacity="1"><g transform="translate(58.27265, 294.827542)"><g><path d="M 5.578125 -52.28125 L 18.3125 -52.28125 L 18.3125 -9.6875 L 34.1875 -9.6875 L 34.1875 0 L 5.578125 0 Z M 5.578125 -52.28125 "/></g></g></g><g fill="#c9ddff" fill-opacity="1"><g transform="translate(92.079869, 294.827542)"><g><path d="M 17.203125 -46.234375 C 15.765625 -44.796875 14 -44.078125 11.90625 -44.078125 C 9.820312 -44.078125 8.0625 -44.796875 6.625 -46.234375 C 5.1875 -47.679688 4.46875 -49.457031 4.46875 -51.5625 C 4.46875 -53.675781 5.1875 -55.453125 6.625 -56.890625 C 8.0625 -58.328125 9.820312 -59.046875 11.90625 -59.046875 C 14 -59.046875 15.765625 -58.328125 17.203125 -56.890625 C 18.640625 -55.453125 19.359375 -53.675781 19.359375 -51.5625 C 19.359375 -49.457031 18.640625 -47.679688 17.203125 -46.234375 Z M 5.578125 0 L 5.578125 -41.546875 L 18.3125 -41.546875 L 18.3125 0 Z M 5.578125 0 "/></g></g></g><g fill="#c9ddff" fill-opacity="1"><g transform="translate(114.121483, 294.827542)"><g><path d="M 33.734375 -13.140625 C 35.566406 -14.898438 36.484375 -17.421875 36.484375 -20.703125 C 36.484375 -23.984375 35.566406 -26.515625 33.734375 -28.296875 C 31.898438 -30.085938 29.789062 -30.984375 27.40625 -30.984375 C 25.019531 -30.984375 22.90625 -30.097656 21.0625 -28.328125 C 19.226562 -26.566406 18.3125 -24.046875 18.3125 -20.765625 C 18.3125 -17.492188 19.226562 -14.960938 21.0625 -13.171875 C 22.90625 -11.390625 25.019531 -10.5 27.40625 -10.5 C 29.789062 -10.5 31.898438 -11.378906 33.734375 -13.140625 Z M 18.3125 -36.125 C 21.144531 -40.039062 25.203125 -42 30.484375 -42 C 35.773438 -42 40.257812 -40 43.9375 -36 C 47.613281 -32.007812 49.453125 -26.910156 49.453125 -20.703125 C 49.453125 -14.492188 47.613281 -9.40625 43.9375 -5.4375 C 40.257812 -1.46875 35.8125 0.515625 30.59375 0.515625 C 25.382812 0.515625 21.289062 -1.664062 18.3125 -6.03125 L 18.3125 0 L 5.578125 0 L 5.578125 -55.109375 L 18.3125 -55.109375 Z M 18.3125 -36.125 "/></g></g></g><g fill="#c9ddff" fill-opacity="1"><g transform="translate(164.236715, 294.827542)"><g><path d="M 18.3125 -55.109375 L 18.3125 -35.453125 C 20.945312 -39.816406 25.144531 -42 30.90625 -42 C 35.664062 -42 39.523438 -40.410156 42.484375 -37.234375 C 45.441406 -34.054688 46.921875 -29.738281 46.921875 -24.28125 L 46.921875 0 L 34.25 0 L 34.25 -22.5625 C 34.25 -25.238281 33.539062 -27.3125 32.125 -28.78125 C 30.71875 -30.25 28.769531 -30.984375 26.28125 -30.984375 C 23.800781 -30.984375 21.851562 -30.25 20.4375 -28.78125 C 19.019531 -27.3125 18.3125 -25.238281 18.3125 -22.5625 L 18.3125 0 L 5.578125 0 L 5.578125 -55.109375 Z M 18.3125 -55.109375 "/></g></g></g><g fill="#c9ddff" fill-opacity="1"><g transform="translate(214.500873, 294.827542)"><g><path d="M 33.8125 -41.546875 L 46.546875 -41.546875 L 46.546875 0 L 33.8125 0 L 33.8125 -6.109375 C 31.175781 -1.734375 26.976562 0.453125 21.21875 0.453125 C 16.457031 0.453125 12.597656 -1.132812 9.640625 -4.3125 C 6.691406 -7.488281 5.21875 -11.8125 5.21875 -17.28125 L 5.21875 -41.546875 L 17.875 -41.546875 L 17.875 -18.984375 C 17.875 -16.304688 18.582031 -14.234375 20 -12.765625 C 21.414062 -11.304688 23.363281 -10.578125 25.84375 -10.578125 C 28.320312 -10.578125 30.269531 -11.304688 31.6875 -12.765625 C 33.101562 -14.234375 33.8125 -16.304688 33.8125 -18.984375 Z M 33.8125 -41.546875 "/></g></g></g><g fill="#c9ddff" fill-opacity="1"><g transform="translate(264.765032, 294.827542)"><g><path d="M 33.734375 -13.140625 C 35.566406 -14.898438 36.484375 -17.421875 36.484375 -20.703125 C 36.484375 -23.984375 35.566406 -26.515625 33.734375 -28.296875 C 31.898438 -30.085938 29.789062 -30.984375 27.40625 -30.984375 C 25.019531 -30.984375 22.90625 -30.097656 21.0625 -28.328125 C 19.226562 -26.566406 18.3125 -24.046875 18.3125 -20.765625 C 18.3125 -17.492188 19.226562 -14.960938 21.0625 -13.171875 C 22.90625 -11.390625 25.019531 -10.5 27.40625 -10.5 C 29.789062 -10.5 31.898438 -11.378906 33.734375 -13.140625 Z M 18.3125 -36.125 C 21.144531 -40.039062 25.203125 -42 30.484375 -42 C 35.773438 -42 40.257812 -40 43.9375 -36 C 47.613281 -32.007812 49.453125 -26.910156 49.453125 -20.703125 C 49.453125 -14.492188 47.613281 -9.40625 43.9375 -5.4375 C 40.257812 -1.46875 35.8125 0.515625 30.59375 0.515625 C 25.382812 0.515625 21.289062 -1.664062 18.3125 -6.03125 L 18.3125 0 L 5.578125 0 L 5.578125 -55.109375 L 18.3125 -55.109375 Z M 18.3125 -36.125 "/></g></g></g><g fill="#ecb0e1" fill-opacity="1"><g transform="translate(47.08229, 342.881174)"><g><path d="M 12.8125 0 L 7.703125 0 L 7.703125 -6.75 L 0.453125 -20.96875 L 6.234375 -20.96875 L 10.265625 -11.5 L 14.265625 -20.96875 L 20.0625 -20.96875 L 12.8125 -6.75 Z M 12.8125 0 "/></g></g></g><g fill="#ecb0e1" fill-opacity="1"><g transform="translate(75.621056, 342.881174)"><g><path d="M 12.234375 -5.21875 C 12.910156 -5.9375 13.25 -6.972656 13.25 -8.328125 C 13.25 -9.679688 12.898438 -10.710938 12.203125 -11.421875 C 11.515625 -12.128906 10.691406 -12.484375 9.734375 -12.484375 C 8.773438 -12.484375 7.953125 -12.128906 7.265625 -11.421875 C 6.578125 -10.710938 6.234375 -9.679688 6.234375 -8.328125 C 6.234375 -6.972656 6.585938 -5.9375 7.296875 -5.21875 C 8.003906 -4.507812 8.835938 -4.15625 9.796875 -4.15625 C 10.753906 -4.15625 11.566406 -4.507812 12.234375 -5.21875 Z M 3.5625 -2.15625 C 1.882812 -3.726562 1.046875 -5.796875 1.046875 -8.359375 C 1.046875 -10.929688 1.878906 -12.988281 3.546875 -14.53125 C 5.222656 -16.070312 7.296875 -16.84375 9.765625 -16.84375 C 12.234375 -16.84375 14.296875 -16.070312 15.953125 -14.53125 C 17.617188 -12.988281 18.453125 -10.929688 18.453125 -8.359375 C 18.453125 -5.796875 17.625 -3.726562 15.96875 -2.15625 C 14.320312 -0.582031 12.265625 0.203125 9.796875 0.203125 C 7.328125 0.203125 5.25 -0.582031 3.5625 -2.15625 Z M 3.5625 -2.15625 "/></g></g></g><g fill="#ecb0e1" fill-opacity="1"><g transform="translate(103.144919, 342.881174)"><g><path d="M 13.5625 -16.65625 L 18.65625 -16.65625 L 18.65625 0 L 13.5625 0 L 13.5625 -2.453125 C 12.5 -0.703125 10.816406 0.171875 8.515625 0.171875 C 6.597656 0.171875 5.046875 -0.460938 3.859375 -1.734375 C 2.679688 -3.003906 2.09375 -4.734375 2.09375 -6.921875 L 2.09375 -16.65625 L 7.171875 -16.65625 L 7.171875 -7.609375 C 7.171875 -6.535156 7.453125 -5.703125 8.015625 -5.109375 C 8.585938 -4.523438 9.367188 -4.234375 10.359375 -4.234375 C 11.359375 -4.234375 12.140625 -4.523438 12.703125 -5.109375 C 13.273438 -5.703125 13.5625 -6.535156 13.5625 -7.609375 Z M 13.5625 -16.65625 "/></g></g></g><g fill="#ecb0e1" fill-opacity="1"><g transform="translate(132.071722, 342.881174)"><g><path d="M 7.34375 -16.65625 L 7.34375 -13.5625 C 8.539062 -15.75 10.132812 -16.84375 12.125 -16.84375 L 12.125 -11.640625 L 10.875 -11.640625 C 9.695312 -11.640625 8.8125 -11.359375 8.21875 -10.796875 C 7.632812 -10.242188 7.34375 -9.273438 7.34375 -7.890625 L 7.34375 0 L 2.234375 0 L 2.234375 -16.65625 Z M 7.34375 -16.65625 "/></g></g></g><g fill="#ecb0e1" fill-opacity="1"><g transform="translate(152.759915, 342.881174)"><g/></g></g><g fill="#ecb0e1" fill-opacity="1"><g transform="translate(169.746709, 342.881174)"><g><path d="M 2.234375 -20.96875 L 7.34375 -20.96875 L 7.34375 -3.875 L 13.703125 -3.875 L 13.703125 0 L 2.234375 0 Z M 2.234375 -20.96875 "/></g></g></g><g fill="#ecb0e1" fill-opacity="1"><g transform="translate(192.076648, 342.881174)"><g><path d="M 6.890625 -18.53125 C 6.316406 -17.957031 5.609375 -17.671875 4.765625 -17.671875 C 3.929688 -17.671875 3.226562 -17.957031 2.65625 -18.53125 C 2.082031 -19.113281 1.796875 -19.828125 1.796875 -20.671875 C 1.796875 -21.523438 2.082031 -22.238281 2.65625 -22.8125 C 3.226562 -23.382812 3.929688 -23.671875 4.765625 -23.671875 C 5.609375 -23.671875 6.316406 -23.382812 6.890625 -22.8125 C 7.472656 -22.238281 7.765625 -21.523438 7.765625 -20.671875 C 7.765625 -19.828125 7.472656 -19.113281 6.890625 -18.53125 Z M 2.234375 0 L 2.234375 -16.65625 L 7.34375 -16.65625 L 7.34375 0 Z M 2.234375 0 "/></g></g></g><g fill="#ecb0e1" fill-opacity="1"><g transform="translate(209.690286, 342.881174)"><g><path d="M 13.515625 -5.265625 C 14.253906 -5.972656 14.625 -6.984375 14.625 -8.296875 C 14.625 -9.609375 14.253906 -10.625 13.515625 -11.34375 C 12.785156 -12.0625 11.941406 -12.421875 10.984375 -12.421875 C 10.035156 -12.421875 9.191406 -12.066406 8.453125 -11.359375 C 7.710938 -10.648438 7.34375 -9.640625 7.34375 -8.328125 C 7.34375 -7.015625 7.710938 -6 8.453125 -5.28125 C 9.191406 -4.5625 10.035156 -4.203125 10.984375 -4.203125 C 11.941406 -4.203125 12.785156 -4.554688 13.515625 -5.265625 Z M 7.34375 -14.484375 C 8.476562 -16.054688 10.101562 -16.84375 12.21875 -16.84375 C 14.34375 -16.84375 16.140625 -16.039062 17.609375 -14.4375 C 19.085938 -12.832031 19.828125 -10.785156 19.828125 -8.296875 C 19.828125 -5.804688 19.085938 -3.765625 17.609375 -2.171875 C 16.140625 -0.585938 14.359375 0.203125 12.265625 0.203125 C 10.179688 0.203125 8.539062 -0.671875 7.34375 -2.421875 L 7.34375 0 L 2.234375 0 L 2.234375 -22.09375 L 7.34375 -22.09375 Z M 7.34375 -14.484375 "/></g></g></g><g fill="#ecb0e1" fill-opacity="1"><g transform="translate(238.557394, 342.881174)"><g><path d="M 7.34375 -16.65625 L 7.34375 -13.5625 C 8.539062 -15.75 10.132812 -16.84375 12.125 -16.84375 L 12.125 -11.640625 L 10.875 -11.640625 C 9.695312 -11.640625 8.8125 -11.359375 8.21875 -10.796875 C 7.632812 -10.242188 7.34375 -9.273438 7.34375 -7.890625 L 7.34375 0 L 2.234375 0 L 2.234375 -16.65625 Z M 7.34375 -16.65625 "/></g></g></g><g fill="#ecb0e1" fill-opacity="1"><g transform="translate(259.245587, 342.881174)"><g><path d="M 12.390625 -5.28125 C 13.128906 -6 13.5 -7.015625 13.5 -8.328125 C 13.5 -9.640625 13.128906 -10.648438 12.390625 -11.359375 C 11.648438 -12.066406 10.800781 -12.421875 9.84375 -12.421875 C 8.894531 -12.421875 8.050781 -12.0625 7.3125 -11.34375 C 6.570312 -10.625 6.203125 -9.609375 6.203125 -8.296875 C 6.203125 -6.984375 6.570312 -5.972656 7.3125 -5.265625 C 8.050781 -4.554688 8.894531 -4.203125 9.84375 -4.203125 C 10.800781 -4.203125 11.648438 -4.5625 12.390625 -5.28125 Z M 3.21875 -2.171875 C 1.75 -3.765625 1.015625 -5.804688 1.015625 -8.296875 C 1.015625 -10.785156 1.75 -12.832031 3.21875 -14.4375 C 4.695312 -16.039062 6.492188 -16.84375 8.609375 -16.84375 C 10.734375 -16.84375 12.363281 -16.054688 13.5 -14.484375 L 13.5 -16.65625 L 18.609375 -16.65625 L 18.609375 0 L 13.5 0 L 13.5 -2.421875 C 12.257812 -0.671875 10.601562 0.203125 8.53125 0.203125 C 6.46875 0.203125 4.695312 -0.585938 3.21875 -2.171875 Z M 3.21875 -2.171875 "/></g></g></g><g fill="#ecb0e1" fill-opacity="1"><g transform="translate(288.112706, 342.881174)"><g><path d="M 7.34375 -16.65625 L 7.34375 -13.5625 C 8.539062 -15.75 10.132812 -16.84375 12.125 -16.84375 L 12.125 -11.640625 L 10.875 -11.640625 C 9.695312 -11.640625 8.8125 -11.359375 8.21875 -10.796875 C 7.632812 -10.242188 7.34375 -9.273438 7.34375 -7.890625 L 7.34375 0 L 2.234375 0 L 2.234375 -16.65625 Z M 7.34375 -16.65625 "/></g></g></g><g fill="#ecb0e1" fill-opacity="1"><g transform="translate(308.80091, 342.881174)"><g><path d="M 6.59375 -0.328125 L 0.125 -16.65625 L 5.90625 -16.65625 L 9.609375 -5.765625 L 13.671875 -16.65625 L 19.015625 -16.65625 L 8.390625 7.9375 L 3.046875 7.9375 Z M 6.59375 -0.328125 "/></g></g></g></svg>