<svg xmlns="http://www.w3.org/2000/svg" xmlns:xlink="http://www.w3.org/1999/xlink" width="220" zoomAndPan="magnify" viewBox="0 0 375 374.999991" height="220" preserveAspectRatio="xMidYMid meet" version="1.0"><defs><g/><clipPath id="id1"><path d="M 83 41 L 292 41 L 292 173.25 L 83 173.25 Z M 83 41 " clip-rule="nonzero"/></clipPath><clipPath id="id2"><path d="M 144 37.5 L 171 37.5 L 171 172 L 144 172 Z M 144 37.5 " clip-rule="nonzero"/></clipPath><clipPath id="id3"><path d="M 204 37.5 L 231 37.5 L 231 172 L 204 172 Z M 204 37.5 " clip-rule="nonzero"/></clipPath></defs><g clip-path="url(#id1)"><path fill="#ecb0e1" d="M 291.023438 115.570312 L 291.023438 99.160156 C 286.878906 98.992188 283.730469 98.164062 281.578125 96.507812 C 279.425781 94.851562 278.097656 92.527344 277.269531 89.378906 C 276.441406 86.230469 276.109375 80.925781 276.109375 73.632812 C 276.109375 65.84375 275.78125 60.207031 274.953125 56.726562 C 274.121094 53.246094 272.796875 50.429688 270.644531 48.109375 C 268.488281 45.953125 265.671875 44.296875 262.195312 43.136719 C 258.714844 42.140625 253.910156 41.476562 247.78125 41.476562 L 244.136719 41.476562 L 244.136719 57.886719 C 250.265625 57.886719 254.078125 58.550781 255.734375 59.710938 C 257.390625 60.871094 258.054688 63.6875 258.054688 67.832031 C 258.054688 80.59375 258.882812 89.546875 260.371094 94.683594 C 261.863281 99.824219 265.507812 103.964844 270.976562 107.28125 C 266.832031 109.601562 263.519531 112.917969 261.367188 117.558594 C 259.210938 122.03125 258.054688 131.8125 258.054688 146.894531 C 258.054688 150.542969 257.554688 152.695312 256.5625 153.855469 C 255.566406 154.851562 254.40625 155.679688 253.25 156.175781 C 252.089844 156.675781 249.105469 156.839844 244.136719 156.839844 L 244.136719 173.25 L 247.78125 173.25 C 257.058594 173.25 263.1875 172.089844 266.503906 169.933594 C 269.816406 167.613281 272.136719 165.128906 273.625 162.144531 C 275.117188 159.160156 275.945312 152.367188 275.945312 141.425781 C 275.945312 134.132812 276.277344 128.828125 277.105469 125.679688 C 277.933594 122.53125 279.257812 120.042969 281.414062 118.386719 C 283.566406 116.730469 286.714844 115.734375 290.855469 115.570312 Z M 83.929688 115.570312 C 88.074219 115.734375 91.21875 116.730469 93.375 118.386719 C 95.527344 120.042969 96.851562 122.363281 97.679688 125.515625 C 98.511719 128.664062 98.839844 133.96875 98.839844 141.425781 C 98.839844 152.035156 99.667969 158.996094 101.160156 162.144531 C 102.652344 165.292969 105.300781 167.945312 108.78125 170.101562 C 112.261719 172.253906 118.390625 173.25 127.171875 173.25 L 130.816406 173.25 L 130.816406 156.839844 C 125.015625 156.839844 121.371094 156.175781 119.550781 154.851562 C 117.726562 153.527344 116.898438 150.875 116.898438 146.894531 C 116.898438 133.800781 116.070312 124.683594 114.414062 119.546875 C 112.757812 114.410156 109.277344 110.429688 104.144531 107.445312 C 109.777344 104.132812 113.253906 99.824219 114.746094 94.519531 C 116.238281 89.214844 116.898438 80.429688 116.898438 68 C 116.898438 63.6875 117.726562 61.035156 119.382812 59.875 C 121.042969 58.714844 124.851562 58.054688 130.816406 58.054688 L 130.816406 41.644531 L 127.171875 41.644531 C 119.21875 41.644531 113.253906 42.636719 109.277344 44.628906 C 105.300781 46.617188 102.484375 49.601562 101.160156 53.578125 C 99.667969 57.554688 99.007812 64.1875 99.007812 73.632812 C 99.007812 80.925781 98.675781 86.066406 97.847656 89.214844 C 97.019531 92.363281 95.695312 94.851562 93.539062 96.507812 C 91.386719 98.164062 88.238281 99.160156 84.097656 99.324219 L 84.097656 115.734375 Z M 83.929688 115.570312 " fill-opacity="1" fill-rule="nonzero"/></g><g clip-path="url(#id2)"><path fill="#f3fcf0" d="M 151.195312 165.128906 L 164.117188 165.128906 C 167.59375 165.128906 170.578125 167.945312 170.578125 171.59375 L 170.578125 43.964844 C 170.578125 40.484375 167.761719 37.5 164.117188 37.5 L 151.195312 37.5 C 147.714844 37.5 144.734375 40.316406 144.734375 43.964844 L 144.734375 171.59375 C 144.734375 168.113281 147.550781 165.128906 151.195312 165.128906 Z M 151.195312 165.128906 " fill-opacity="1" fill-rule="evenodd"/></g><path fill="#adcaeb" d="M 181.675781 163.46875 L 194.601562 163.46875 C 198.078125 163.46875 201.0625 166.289062 201.0625 169.933594 L 201.0625 73.46875 C 201.0625 69.988281 198.246094 67.003906 194.601562 67.003906 L 181.675781 67.003906 C 178.199219 67.003906 175.214844 69.820312 175.214844 73.46875 L 175.214844 169.933594 C 175.214844 173.414062 178.03125 163.46875 181.675781 163.46875 Z M 181.675781 163.46875 " fill-opacity="1" fill-rule="evenodd"/><g clip-path="url(#id3)"><path fill="#f3fcf0" d="M 211 165.128906 L 223.925781 165.128906 C 227.402344 165.128906 230.386719 167.945312 230.386719 171.59375 L 230.386719 43.964844 C 230.386719 40.484375 227.570312 37.5 223.925781 37.5 L 211 37.5 C 207.523438 37.5 204.539062 40.316406 204.539062 43.964844 L 204.539062 171.59375 C 204.539062 168.113281 207.355469 165.128906 211 165.128906 Z M 211 165.128906 " fill-opacity="1" fill-rule="evenodd"/></g><g fill="#000000" fill-opacity="0.4"><g transform="translate(12.456417, 310.425361)"><g><path d="M 7.765625 -72.65625 L 25.46875 -72.65625 L 25.46875 -13.453125 L 47.5 -13.453125 L 47.5 0 L 7.765625 0 Z M 7.765625 -72.65625 "/></g></g></g><g fill="#000000" fill-opacity="0.4"><g transform="translate(59.445194, 310.425361)"><g><path d="M 23.90625 -64.265625 C 21.90625 -62.265625 19.457031 -61.265625 16.5625 -61.265625 C 13.664062 -61.265625 11.210938 -62.265625 9.203125 -64.265625 C 7.203125 -66.273438 6.203125 -68.742188 6.203125 -71.671875 C 6.203125 -74.609375 7.203125 -77.078125 9.203125 -79.078125 C 11.210938 -81.078125 13.664062 -82.078125 16.5625 -82.078125 C 19.457031 -82.078125 21.90625 -81.078125 23.90625 -79.078125 C 25.90625 -77.078125 26.90625 -74.609375 26.90625 -71.671875 C 26.90625 -68.742188 25.90625 -66.273438 23.90625 -64.265625 Z M 7.765625 0 L 7.765625 -57.75 L 25.46875 -57.75 L 25.46875 0 Z M 7.765625 0 "/></g></g></g><g fill="#000000" fill-opacity="0.4"><g transform="translate(90.080972, 310.425361)"><g><path d="M 46.890625 -18.265625 C 49.441406 -20.710938 50.71875 -24.210938 50.71875 -28.765625 C 50.71875 -33.328125 49.441406 -36.847656 46.890625 -39.328125 C 44.335938 -41.816406 41.40625 -43.0625 38.09375 -43.0625 C 34.78125 -43.0625 31.847656 -41.832031 29.296875 -39.375 C 26.742188 -36.925781 25.46875 -33.425781 25.46875 -28.875 C 25.46875 -24.320312 26.742188 -20.800781 29.296875 -18.3125 C 31.847656 -15.832031 34.78125 -14.59375 38.09375 -14.59375 C 41.40625 -14.59375 44.335938 -15.816406 46.890625 -18.265625 Z M 25.46875 -50.203125 C 29.394531 -55.648438 35.03125 -58.375 42.375 -58.375 C 49.726562 -58.375 55.957031 -55.59375 61.0625 -50.03125 C 66.164062 -44.476562 68.71875 -37.390625 68.71875 -28.765625 C 68.71875 -20.140625 66.164062 -13.066406 61.0625 -7.546875 C 55.957031 -2.035156 49.78125 0.71875 42.53125 0.71875 C 35.289062 0.71875 29.601562 -2.316406 25.46875 -8.390625 L 25.46875 0 L 7.765625 0 L 7.765625 -76.59375 L 25.46875 -76.59375 Z M 25.46875 -50.203125 "/></g></g></g><g fill="#000000" fill-opacity="0.4"><g transform="translate(159.736238, 310.425361)"><g><path d="M 25.46875 -76.59375 L 25.46875 -49.265625 C 29.125 -55.335938 34.953125 -58.375 42.953125 -58.375 C 49.578125 -58.375 54.941406 -56.164062 59.046875 -51.75 C 63.148438 -47.332031 65.203125 -41.328125 65.203125 -33.734375 L 65.203125 0 L 47.609375 0 L 47.609375 -31.359375 C 47.609375 -35.085938 46.625 -37.96875 44.65625 -40 C 42.6875 -42.039062 39.976562 -43.0625 36.53125 -43.0625 C 33.082031 -43.0625 30.375 -42.039062 28.40625 -40 C 26.445312 -37.96875 25.46875 -35.085938 25.46875 -31.359375 L 25.46875 0 L 7.765625 0 L 7.765625 -76.59375 Z M 25.46875 -76.59375 "/></g></g></g><g fill="#000000" fill-opacity="0.4"><g transform="translate(229.598523, 310.425361)"><g><path d="M 46.984375 -57.75 L 64.6875 -57.75 L 64.6875 0 L 46.984375 0 L 46.984375 -8.484375 C 43.328125 -2.410156 37.5 0.625 29.5 0.625 C 22.875 0.625 17.507812 -1.582031 13.40625 -6 C 9.300781 -10.414062 7.25 -16.421875 7.25 -24.015625 L 7.25 -57.75 L 24.84375 -57.75 L 24.84375 -26.390625 C 24.84375 -22.660156 25.820312 -19.78125 27.78125 -17.75 C 29.75 -15.71875 32.457031 -14.703125 35.90625 -14.703125 C 39.363281 -14.703125 42.070312 -15.71875 44.03125 -17.75 C 46 -19.78125 46.984375 -22.660156 46.984375 -26.390625 Z M 46.984375 -57.75 "/></g></g></g><g fill="#000000" fill-opacity="0.4"><g transform="translate(299.460808, 310.425361)"><g><path d="M 46.890625 -18.265625 C 49.441406 -20.710938 50.71875 -24.210938 50.71875 -28.765625 C 50.71875 -33.328125 49.441406 -36.847656 46.890625 -39.328125 C 44.335938 -41.816406 41.40625 -43.0625 38.09375 -43.0625 C 34.78125 -43.0625 31.847656 -41.832031 29.296875 -39.375 C 26.742188 -36.925781 25.46875 -33.425781 25.46875 -28.875 C 25.46875 -24.320312 26.742188 -20.800781 29.296875 -18.3125 C 31.847656 -15.832031 34.78125 -14.59375 38.09375 -14.59375 C 41.40625 -14.59375 44.335938 -15.816406 46.890625 -18.265625 Z M 25.46875 -50.203125 C 29.394531 -55.648438 35.03125 -58.375 42.375 -58.375 C 49.726562 -58.375 55.957031 -55.59375 61.0625 -50.03125 C 66.164062 -44.476562 68.71875 -37.390625 68.71875 -28.765625 C 68.71875 -20.140625 66.164062 -13.066406 61.0625 -7.546875 C 55.957031 -2.035156 49.78125 0.71875 42.53125 0.71875 C 35.289062 0.71875 29.601562 -2.316406 25.46875 -8.390625 L 25.46875 0 L 7.765625 0 L 7.765625 -76.59375 L 25.46875 -76.59375 Z M 25.46875 -50.203125 "/></g></g></g><g fill="#c9ddff" fill-opacity="1"><g transform="translate(7.881923, 305.850858)"><g><path d="M 7.765625 -72.65625 L 25.46875 -72.65625 L 25.46875 -13.453125 L 47.5 -13.453125 L 47.5 0 L 7.765625 0 Z M 7.765625 -72.65625 "/></g></g></g><g fill="#c9ddff" fill-opacity="1"><g transform="translate(54.8707, 305.850858)"><g><path d="M 23.90625 -64.265625 C 21.90625 -62.265625 19.457031 -61.265625 16.5625 -61.265625 C 13.664062 -61.265625 11.210938 -62.265625 9.203125 -64.265625 C 7.203125 -66.273438 6.203125 -68.742188 6.203125 -71.671875 C 6.203125 -74.609375 7.203125 -77.078125 9.203125 -79.078125 C 11.210938 -81.078125 13.664062 -82.078125 16.5625 -82.078125 C 19.457031 -82.078125 21.90625 -81.078125 23.90625 -79.078125 C 25.90625 -77.078125 26.90625 -74.609375 26.90625 -71.671875 C 26.90625 -68.742188 25.90625 -66.273438 23.90625 -64.265625 Z M 7.765625 0 L 7.765625 -57.75 L 25.46875 -57.75 L 25.46875 0 Z M 7.765625 0 "/></g></g></g><g fill="#c9ddff" fill-opacity="1"><g transform="translate(85.506477, 305.850858)"><g><path d="M 46.890625 -18.265625 C 49.441406 -20.710938 50.71875 -24.210938 50.71875 -28.765625 C 50.71875 -33.328125 49.441406 -36.847656 46.890625 -39.328125 C 44.335938 -41.816406 41.40625 -43.0625 38.09375 -43.0625 C 34.78125 -43.0625 31.847656 -41.832031 29.296875 -39.375 C 26.742188 -36.925781 25.46875 -33.425781 25.46875 -28.875 C 25.46875 -24.320312 26.742188 -20.800781 29.296875 -18.3125 C 31.847656 -15.832031 34.78125 -14.59375 38.09375 -14.59375 C 41.40625 -14.59375 44.335938 -15.816406 46.890625 -18.265625 Z M 25.46875 -50.203125 C 29.394531 -55.648438 35.03125 -58.375 42.375 -58.375 C 49.726562 -58.375 55.957031 -55.59375 61.0625 -50.03125 C 66.164062 -44.476562 68.71875 -37.390625 68.71875 -28.765625 C 68.71875 -20.140625 66.164062 -13.066406 61.0625 -7.546875 C 55.957031 -2.035156 49.78125 0.71875 42.53125 0.71875 C 35.289062 0.71875 29.601562 -2.316406 25.46875 -8.390625 L 25.46875 0 L 7.765625 0 L 7.765625 -76.59375 L 25.46875 -76.59375 Z M 25.46875 -50.203125 "/></g></g></g><g fill="#c9ddff" fill-opacity="1"><g transform="translate(155.161744, 305.850858)"><g><path d="M 25.46875 -76.59375 L 25.46875 -49.265625 C 29.125 -55.335938 34.953125 -58.375 42.953125 -58.375 C 49.578125 -58.375 54.941406 -56.164062 59.046875 -51.75 C 63.148438 -47.332031 65.203125 -41.328125 65.203125 -33.734375 L 65.203125 0 L 47.609375 0 L 47.609375 -31.359375 C 47.609375 -35.085938 46.625 -37.96875 44.65625 -40 C 42.6875 -42.039062 39.976562 -43.0625 36.53125 -43.0625 C 33.082031 -43.0625 30.375 -42.039062 28.40625 -40 C 26.445312 -37.96875 25.46875 -35.085938 25.46875 -31.359375 L 25.46875 0 L 7.765625 0 L 7.765625 -76.59375 Z M 25.46875 -76.59375 "/></g></g></g><g fill="#c9ddff" fill-opacity="1"><g transform="translate(225.024029, 305.850858)"><g><path d="M 46.984375 -57.75 L 64.6875 -57.75 L 64.6875 0 L 46.984375 0 L 46.984375 -8.484375 C 43.328125 -2.410156 37.5 0.625 29.5 0.625 C 22.875 0.625 17.507812 -1.582031 13.40625 -6 C 9.300781 -10.414062 7.25 -16.421875 7.25 -24.015625 L 7.25 -57.75 L 24.84375 -57.75 L 24.84375 -26.390625 C 24.84375 -22.660156 25.820312 -19.78125 27.78125 -17.75 C 29.75 -15.71875 32.457031 -14.703125 35.90625 -14.703125 C 39.363281 -14.703125 42.070312 -15.71875 44.03125 -17.75 C 46 -19.78125 46.984375 -22.660156 46.984375 -26.390625 Z M 46.984375 -57.75 "/></g></g></g><g fill="#c9ddff" fill-opacity="1"><g transform="translate(294.886313, 305.850858)"><g><path d="M 46.890625 -18.265625 C 49.441406 -20.710938 50.71875 -24.210938 50.71875 -28.765625 C 50.71875 -33.328125 49.441406 -36.847656 46.890625 -39.328125 C 44.335938 -41.816406 41.40625 -43.0625 38.09375 -43.0625 C 34.78125 -43.0625 31.847656 -41.832031 29.296875 -39.375 C 26.742188 -36.925781 25.46875 -33.425781 25.46875 -28.875 C 25.46875 -24.320312 26.742188 -20.800781 29.296875 -18.3125 C 31.847656 -15.832031 34.78125 -14.59375 38.09375 -14.59375 C 41.40625 -14.59375 44.335938 -15.816406 46.890625 -18.265625 Z M 25.46875 -50.203125 C 29.394531 -55.648438 35.03125 -58.375 42.375 -58.375 C 49.726562 -58.375 55.957031 -55.59375 61.0625 -50.03125 C 66.164062 -44.476562 68.71875 -37.390625 68.71875 -28.765625 C 68.71875 -20.140625 66.164062 -13.066406 61.0625 -7.546875 C 55.957031 -2.035156 49.78125 0.71875 42.53125 0.71875 C 35.289062 0.71875 29.601562 -2.316406 25.46875 -8.390625 L 25.46875 0 L 7.765625 0 L 7.765625 -76.59375 L 25.46875 -76.59375 Z M 25.46875 -50.203125 "/></g></g></g></svg>