<svg xmlns="http://www.w3.org/2000/svg" xmlns:xlink="http://www.w3.org/1999/xlink" width="110" zoomAndPan="magnify" viewBox="0 0 375 374.999991" height="110" preserveAspectRatio="xMidYMid meet" version="1.0"><defs><g/><clipPath id="id1"><path d="M 50 45 L 325 45 L 325 219.421875 L 50 219.421875 Z M 50 45 " clip-rule="nonzero"/></clipPath><clipPath id="id2"><path d="M 131 40.171875 L 166 40.171875 L 166 218 L 131 218 Z M 131 40.171875 " clip-rule="nonzero"/></clipPath><clipPath id="id3"><path d="M 210 40.171875 L 245 40.171875 L 245 218 L 210 218 Z M 210 40.171875 " clip-rule="nonzero"/></clipPath></defs><g clip-path="url(#id1)"><path fill="#ecb0e1" d="M 324.175781 143.253906 L 324.175781 121.589844 C 318.707031 121.371094 314.554688 120.273438 311.710938 118.085938 C 308.867188 115.898438 307.121094 112.832031 306.027344 108.675781 C 304.933594 104.515625 304.496094 97.511719 304.496094 87.882812 C 304.496094 77.597656 304.058594 70.15625 302.964844 65.558594 C 301.871094 60.960938 300.125 57.242188 297.28125 54.179688 C 294.4375 51.332031 290.722656 49.144531 286.128906 47.613281 C 281.539062 46.296875 275.199219 45.421875 267.109375 45.421875 L 262.296875 45.421875 L 262.296875 67.089844 C 270.386719 67.089844 275.417969 67.964844 277.601562 69.5 C 279.789062 71.03125 280.664062 74.75 280.664062 80.222656 C 280.664062 97.074219 281.757812 108.894531 283.726562 115.679688 C 285.691406 122.464844 290.503906 127.933594 297.71875 132.3125 C 292.253906 135.375 287.878906 139.753906 285.035156 145.882812 C 282.195312 151.792969 280.664062 164.703125 280.664062 184.621094 C 280.664062 189.4375 280.007812 192.28125 278.695312 193.8125 C 277.382812 195.125 275.855469 196.222656 274.324219 196.878906 C 272.792969 197.535156 268.859375 197.753906 262.296875 197.753906 L 262.296875 219.421875 L 267.109375 219.421875 C 279.351562 219.421875 287.441406 217.886719 291.816406 215.042969 C 296.1875 211.980469 299.25 208.695312 301.214844 204.757812 C 303.183594 200.816406 304.277344 191.84375 304.277344 177.398438 C 304.277344 167.769531 304.714844 160.765625 305.808594 156.605469 C 306.902344 152.449219 308.648438 149.164062 311.492188 146.976562 C 314.335938 144.789062 318.488281 143.472656 323.957031 143.253906 Z M 50.871094 143.253906 C 56.335938 143.472656 60.492188 144.789062 63.332031 146.976562 C 66.175781 149.164062 67.925781 152.230469 69.019531 156.386719 C 70.113281 160.546875 70.550781 167.550781 70.550781 177.398438 C 70.550781 191.40625 71.640625 200.597656 73.609375 204.757812 C 75.578125 208.914062 79.074219 212.417969 83.667969 215.261719 C 88.257812 218.105469 96.347656 219.421875 107.9375 219.421875 L 112.746094 219.421875 L 112.746094 197.753906 C 105.09375 197.753906 100.285156 196.878906 97.878906 195.125 C 95.472656 193.375 94.382812 189.875 94.382812 184.621094 C 94.382812 167.332031 93.289062 155.292969 91.101562 148.507812 C 88.914062 141.722656 84.324219 136.472656 77.546875 132.53125 C 84.980469 128.152344 89.570312 122.464844 91.539062 115.460938 C 93.507812 108.457031 94.382812 96.855469 94.382812 80.441406 C 94.382812 74.75 95.472656 71.25 97.660156 69.71875 C 99.847656 68.183594 104.875 67.308594 112.746094 67.308594 L 112.746094 45.640625 L 107.9375 45.640625 C 97.441406 45.640625 89.570312 46.957031 84.324219 49.582031 C 79.074219 52.207031 75.359375 56.148438 73.609375 61.398438 C 71.640625 66.652344 70.769531 75.40625 70.769531 87.882812 C 70.769531 97.511719 70.332031 104.296875 69.238281 108.457031 C 68.144531 112.613281 66.394531 115.898438 63.550781 118.085938 C 60.710938 120.273438 56.554688 121.589844 51.089844 121.808594 L 51.089844 143.472656 Z M 50.871094 143.253906 " fill-opacity="1" fill-rule="nonzero"/></g><g clip-path="url(#id2)"><path fill="#f3fcf0" d="M 139.640625 208.695312 L 156.695312 208.695312 C 161.285156 208.695312 165.222656 212.417969 165.222656 217.230469 L 165.222656 48.707031 C 165.222656 44.109375 161.503906 40.171875 156.695312 40.171875 L 139.640625 40.171875 C 135.046875 40.171875 131.113281 43.890625 131.113281 48.707031 L 131.113281 217.230469 C 131.113281 212.636719 134.828125 208.695312 139.640625 208.695312 Z M 139.640625 208.695312 " fill-opacity="1" fill-rule="evenodd"/></g><path fill="#adcaeb" d="M 179.871094 206.507812 L 196.925781 206.507812 C 201.515625 206.507812 205.453125 210.226562 205.453125 215.042969 L 205.453125 87.664062 C 205.453125 83.066406 201.734375 79.128906 196.925781 79.128906 L 179.871094 79.128906 C 175.277344 79.128906 171.34375 82.847656 171.34375 87.664062 L 171.34375 215.042969 C 171.34375 219.640625 175.058594 206.507812 179.871094 206.507812 Z M 179.871094 206.507812 " fill-opacity="1" fill-rule="evenodd"/><g clip-path="url(#id3)"><path fill="#f3fcf0" d="M 218.570312 208.695312 L 235.625 208.695312 C 240.214844 208.695312 244.152344 212.417969 244.152344 217.230469 L 244.152344 48.707031 C 244.152344 44.109375 240.433594 40.171875 235.625 40.171875 L 218.570312 40.171875 C 213.976562 40.171875 210.042969 43.890625 210.042969 48.707031 L 210.042969 217.230469 C 210.042969 212.636719 213.757812 208.695312 218.570312 208.695312 Z M 218.570312 208.695312 " fill-opacity="1" fill-rule="evenodd"/></g><g fill="#c9ddff" fill-opacity="1"><g transform="translate(58.27265, 312.451545)"><g><path d="M 5.578125 -52.28125 L 18.3125 -52.28125 L 18.3125 -9.6875 L 34.1875 -9.6875 L 34.1875 0 L 5.578125 0 Z M 5.578125 -52.28125 "/></g></g></g><g fill="#c9ddff" fill-opacity="1"><g transform="translate(92.079869, 312.451545)"><g><path d="M 17.203125 -46.234375 C 15.765625 -44.796875 14 -44.078125 11.90625 -44.078125 C 9.820312 -44.078125 8.0625 -44.796875 6.625 -46.234375 C 5.1875 -47.679688 4.46875 -49.457031 4.46875 -51.5625 C 4.46875 -53.675781 5.1875 -55.453125 6.625 -56.890625 C 8.0625 -58.328125 9.820312 -59.046875 11.90625 -59.046875 C 14 -59.046875 15.765625 -58.328125 17.203125 -56.890625 C 18.640625 -55.453125 19.359375 -53.675781 19.359375 -51.5625 C 19.359375 -49.457031 18.640625 -47.679688 17.203125 -46.234375 Z M 5.578125 0 L 5.578125 -41.546875 L 18.3125 -41.546875 L 18.3125 0 Z M 5.578125 0 "/></g></g></g><g fill="#c9ddff" fill-opacity="1"><g transform="translate(114.121483, 312.451545)"><g><path d="M 33.734375 -13.140625 C 35.566406 -14.898438 36.484375 -17.421875 36.484375 -20.703125 C 36.484375 -23.984375 35.566406 -26.515625 33.734375 -28.296875 C 31.898438 -30.085938 29.789062 -30.984375 27.40625 -30.984375 C 25.019531 -30.984375 22.90625 -30.097656 21.0625 -28.328125 C 19.226562 -26.566406 18.3125 -24.046875 18.3125 -20.765625 C 18.3125 -17.492188 19.226562 -14.960938 21.0625 -13.171875 C 22.90625 -11.390625 25.019531 -10.5 27.40625 -10.5 C 29.789062 -10.5 31.898438 -11.378906 33.734375 -13.140625 Z M 18.3125 -36.125 C 21.144531 -40.039062 25.203125 -42 30.484375 -42 C 35.773438 -42 40.257812 -40 43.9375 -36 C 47.613281 -32.007812 49.453125 -26.910156 49.453125 -20.703125 C 49.453125 -14.492188 47.613281 -9.40625 43.9375 -5.4375 C 40.257812 -1.46875 35.8125 0.515625 30.59375 0.515625 C 25.382812 0.515625 21.289062 -1.664062 18.3125 -6.03125 L 18.3125 0 L 5.578125 0 L 5.578125 -55.109375 L 18.3125 -55.109375 Z M 18.3125 -36.125 "/></g></g></g><g fill="#c9ddff" fill-opacity="1"><g transform="translate(164.236715, 312.451545)"><g><path d="M 18.3125 -55.109375 L 18.3125 -35.453125 C 20.945312 -39.816406 25.144531 -42 30.90625 -42 C 35.664062 -42 39.523438 -40.410156 42.484375 -37.234375 C 45.441406 -34.054688 46.921875 -29.738281 46.921875 -24.28125 L 46.921875 0 L 34.25 0 L 34.25 -22.5625 C 34.25 -25.238281 33.539062 -27.3125 32.125 -28.78125 C 30.71875 -30.25 28.769531 -30.984375 26.28125 -30.984375 C 23.800781 -30.984375 21.851562 -30.25 20.4375 -28.78125 C 19.019531 -27.3125 18.3125 -25.238281 18.3125 -22.5625 L 18.3125 0 L 5.578125 0 L 5.578125 -55.109375 Z M 18.3125 -55.109375 "/></g></g></g><g fill="#c9ddff" fill-opacity="1"><g transform="translate(214.500873, 312.451545)"><g><path d="M 33.8125 -41.546875 L 46.546875 -41.546875 L 46.546875 0 L 33.8125 0 L 33.8125 -6.109375 C 31.175781 -1.734375 26.976562 0.453125 21.21875 0.453125 C 16.457031 0.453125 12.597656 -1.132812 9.640625 -4.3125 C 6.691406 -7.488281 5.21875 -11.8125 5.21875 -17.28125 L 5.21875 -41.546875 L 17.875 -41.546875 L 17.875 -18.984375 C 17.875 -16.304688 18.582031 -14.234375 20 -12.765625 C 21.414062 -11.304688 23.363281 -10.578125 25.84375 -10.578125 C 28.320312 -10.578125 30.269531 -11.304688 31.6875 -12.765625 C 33.101562 -14.234375 33.8125 -16.304688 33.8125 -18.984375 Z M 33.8125 -41.546875 "/></g></g></g><g fill="#c9ddff" fill-opacity="1"><g transform="translate(264.765032, 312.451545)"><g><path d="M 33.734375 -13.140625 C 35.566406 -14.898438 36.484375 -17.421875 36.484375 -20.703125 C 36.484375 -23.984375 35.566406 -26.515625 33.734375 -28.296875 C 31.898438 -30.085938 29.789062 -30.984375 27.40625 -30.984375 C 25.019531 -30.984375 22.90625 -30.097656 21.0625 -28.328125 C 19.226562 -26.566406 18.3125 -24.046875 18.3125 -20.765625 C 18.3125 -17.492188 19.226562 -14.960938 21.0625 -13.171875 C 22.90625 -11.390625 25.019531 -10.5 27.40625 -10.5 C 29.789062 -10.5 31.898438 -11.378906 33.734375 -13.140625 Z M 18.3125 -36.125 C 21.144531 -40.039062 25.203125 -42 30.484375 -42 C 35.773438 -42 40.257812 -40 43.9375 -36 C 47.613281 -32.007812 49.453125 -26.910156 49.453125 -20.703125 C 49.453125 -14.492188 47.613281 -9.40625 43.9375 -5.4375 C 40.257812 -1.46875 35.8125 0.515625 30.59375 0.515625 C 25.382812 0.515625 21.289062 -1.664062 18.3125 -6.03125 L 18.3125 0 L 5.578125 0 L 5.578125 -55.109375 L 18.3125 -55.109375 Z M 18.3125 -36.125 "/></g></g></g></svg>