<svg xmlns="http://www.w3.org/2000/svg" xmlns:xlink="http://www.w3.org/1999/xlink" width="320" zoomAndPan="magnify" viewBox="0 0 1874.88 374.999991" height="80" preserveAspectRatio="xMidYMid meet" version="1.0"><defs><g/><clipPath id="id1"><path d="M 1624.957031 298 L 1691 298 L 1691 313.117188 L 1624.957031 313.117188 Z M 200 298 L 1547.105469 298 L 1547.105469 313.117188 L 200 313.117188 Z M 200 313.117188 L 1691 313.117188 L 1691 325 L 200 325 Z M 200 313.117188 " clip-rule="nonzero"/></clipPath><clipPath id="id2"><path d="M 1624.957031 286 L 1680 286 L 1680 313 L 1624.957031 313 Z M 189 286 L 1547.105469 286 L 1547.105469 313 L 189 313 Z M 189 286 " clip-rule="nonzero"/></clipPath></defs><g clip-path="url(#id1)"><path fill="#000000" d="M 200.710938 298.023438 L 1690.886719 298.023438 L 1690.886719 324.269531 L 200.710938 324.269531 Z M 200.710938 298.023438 " fill-opacity="0.4" fill-rule="nonzero"/></g><g clip-path="url(#id2)"><path fill="#c9ddff" d="M 189.054688 286.367188 L 1679.230469 286.367188 L 1679.230469 312.613281 L 189.054688 312.613281 Z M 189.054688 286.367188 " fill-opacity="1" fill-rule="nonzero"/></g><g fill="#000000" fill-opacity="0.4"><g transform="translate(200.710418, 284.523845)"><g><path d="M 7.125 -150.859375 L 7.125 -185.15625 L 153.234375 -185.15625 L 153.234375 -150.859375 L 102.59375 -150.859375 L 102.59375 0 L 57.5 0 L 57.5 -150.859375 Z M 7.125 -150.859375 "/></g></g></g><g fill="#000000" fill-opacity="0.4"><g transform="translate(354.476707, 284.523845)"><g><path d="M 64.875 -195.171875 L 64.875 -125.546875 C 74.195312 -141.015625 89.054688 -148.75 109.453125 -148.75 C 126.335938 -148.75 140.007812 -143.125 150.46875 -131.875 C 160.925781 -120.625 166.15625 -105.328125 166.15625 -85.984375 L 166.15625 0 L 121.328125 0 L 121.328125 -79.921875 C 121.328125 -89.410156 118.820312 -96.75 113.8125 -101.9375 C 108.800781 -107.125 101.898438 -109.71875 93.109375 -109.71875 C 84.316406 -109.71875 77.410156 -107.125 72.390625 -101.9375 C 67.378906 -96.75 64.875 -89.410156 64.875 -79.921875 L 64.875 0 L 19.78125 0 L 19.78125 -195.171875 Z M 64.875 -195.171875 "/></g></g></g><g fill="#000000" fill-opacity="0.4"><g transform="translate(532.508, 284.523845)"><g><path d="M 82.296875 1.84375 C 60.835938 1.84375 43.25 -5.054688 29.53125 -18.859375 C 15.820312 -32.660156 8.96875 -50.988281 8.96875 -73.84375 C 8.96875 -96.707031 15.78125 -114.90625 29.40625 -128.4375 C 43.03125 -141.976562 60.65625 -148.75 82.28125 -148.75 C 103.914062 -148.75 121.851562 -142.066406 136.09375 -128.703125 C 150.332031 -115.347656 157.453125 -96.800781 157.453125 -73.0625 C 157.453125 -67.957031 157.101562 -63.207031 156.40625 -58.8125 L 55.125 -58.8125 C 56 -52.3125 58.898438 -46.992188 63.828125 -42.859375 C 68.753906 -38.722656 74.070312 -36.65625 79.78125 -36.65625 C 85.5 -36.65625 89.765625 -37.226562 92.578125 -38.375 C 95.390625 -39.519531 97.453125 -40.660156 98.765625 -41.796875 C 100.085938 -42.941406 101.804688 -44.832031 103.921875 -47.46875 L 152.71875 -47.46875 C 148.488281 -32.695312 140.046875 -20.785156 127.390625 -11.734375 C 114.734375 -2.679688 99.703125 1.84375 82.296875 1.84375 Z M 110.515625 -87.03125 C 109.804688 -93.894531 106.8125 -99.476562 101.53125 -103.78125 C 96.257812 -108.09375 90.019531 -110.25 82.8125 -110.25 C 75.601562 -110.25 69.535156 -108.09375 64.609375 -103.78125 C 59.691406 -99.476562 56.617188 -93.894531 55.390625 -87.03125 Z M 110.515625 -87.03125 "/></g></g></g><g fill="#000000" fill-opacity="0.4"><g transform="translate(692.604296, 284.523845)"><g/></g></g><g fill="#000000" fill-opacity="0.4"><g transform="translate(765.13551, 284.523845)"><g><path d="M 19.78125 -185.15625 L 64.875 -185.15625 L 64.875 -34.28125 L 121.0625 -34.28125 L 121.0625 0 L 19.78125 0 Z M 19.78125 -185.15625 "/></g></g></g><g fill="#000000" fill-opacity="0.4"><g transform="translate(884.877993, 284.523845)"><g><path d="M 60.921875 -163.78125 C 55.828125 -158.6875 49.585938 -156.140625 42.203125 -156.140625 C 34.816406 -156.140625 28.570312 -158.6875 23.46875 -163.78125 C 18.375 -168.882812 15.828125 -175.171875 15.828125 -182.640625 C 15.828125 -190.117188 18.375 -196.40625 23.46875 -201.5 C 28.570312 -206.601562 34.816406 -209.15625 42.203125 -209.15625 C 49.585938 -209.15625 55.828125 -206.601562 60.921875 -201.5 C 66.023438 -196.40625 68.578125 -190.117188 68.578125 -182.640625 C 68.578125 -175.171875 66.023438 -168.882812 60.921875 -163.78125 Z M 19.78125 0 L 19.78125 -147.171875 L 64.875 -147.171875 L 64.875 0 Z M 19.78125 0 "/></g></g></g><g fill="#000000" fill-opacity="0.4"><g transform="translate(962.947929, 284.523845)"><g><path d="M 119.46875 -46.546875 C 125.976562 -52.796875 129.234375 -61.722656 129.234375 -73.328125 C 129.234375 -84.929688 125.976562 -93.894531 119.46875 -100.21875 C 112.96875 -106.550781 105.5 -109.71875 97.0625 -109.71875 C 88.625 -109.71875 81.148438 -106.597656 74.640625 -100.359375 C 68.128906 -94.117188 64.875 -85.191406 64.875 -73.578125 C 64.875 -61.972656 68.128906 -53.003906 74.640625 -46.671875 C 81.148438 -40.347656 88.625 -37.1875 97.0625 -37.1875 C 105.5 -37.1875 112.96875 -40.304688 119.46875 -46.546875 Z M 64.875 -127.921875 C 74.90625 -141.804688 89.28125 -148.75 108 -148.75 C 126.726562 -148.75 142.597656 -141.671875 155.609375 -127.515625 C 168.617188 -113.367188 175.125 -95.304688 175.125 -73.328125 C 175.125 -51.347656 168.617188 -33.320312 155.609375 -19.25 C 142.597656 -5.1875 126.859375 1.84375 108.390625 1.84375 C 89.929688 1.84375 75.425781 -5.890625 64.875 -21.359375 L 64.875 0 L 19.78125 0 L 19.78125 -195.171875 L 64.875 -195.171875 Z M 64.875 -127.921875 "/></g></g></g><g fill="#000000" fill-opacity="0.4"><g transform="translate(1140.451683, 284.523845)"><g><path d="M 64.875 -147.171875 L 64.875 -119.75 C 75.425781 -139.082031 89.492188 -148.75 107.078125 -148.75 L 107.078125 -102.859375 L 96 -102.859375 C 85.625 -102.859375 77.84375 -100.394531 72.65625 -95.46875 C 67.46875 -90.550781 64.875 -81.9375 64.875 -69.625 L 64.875 0 L 19.78125 0 L 19.78125 -147.171875 Z M 64.875 -147.171875 "/></g></g></g><g fill="#000000" fill-opacity="0.4"><g transform="translate(1245.687925, 284.523845)"><g><path d="M 109.453125 -46.671875 C 115.960938 -53.003906 119.21875 -61.972656 119.21875 -73.578125 C 119.21875 -85.191406 115.960938 -94.117188 109.453125 -100.359375 C 102.953125 -106.597656 95.476562 -109.71875 87.03125 -109.71875 C 78.59375 -109.71875 71.117188 -106.550781 64.609375 -100.21875 C 58.109375 -93.894531 54.859375 -84.929688 54.859375 -73.328125 C 54.859375 -61.722656 58.109375 -52.796875 64.609375 -46.546875 C 71.117188 -40.304688 78.59375 -37.1875 87.03125 -37.1875 C 95.476562 -37.1875 102.953125 -40.347656 109.453125 -46.671875 Z M 28.484375 -19.25 C 15.472656 -33.320312 8.96875 -51.347656 8.96875 -73.328125 C 8.96875 -95.304688 15.472656 -113.367188 28.484375 -127.515625 C 41.492188 -141.671875 57.363281 -148.75 76.09375 -148.75 C 94.820312 -148.75 109.195312 -141.804688 119.21875 -127.921875 L 119.21875 -147.171875 L 164.3125 -147.171875 L 164.3125 0 L 119.21875 0 L 119.21875 -21.359375 C 108.3125 -5.890625 93.710938 1.84375 75.421875 1.84375 C 57.140625 1.84375 41.492188 -5.1875 28.484375 -19.25 Z M 28.484375 -19.25 "/></g></g></g><g fill="#000000" fill-opacity="0.4"><g transform="translate(1423.191724, 284.523845)"><g><path d="M 64.875 -147.171875 L 64.875 -119.75 C 75.425781 -139.082031 89.492188 -148.75 107.078125 -148.75 L 107.078125 -102.859375 L 96 -102.859375 C 85.625 -102.859375 77.84375 -100.394531 72.65625 -95.46875 C 67.46875 -90.550781 64.875 -81.9375 64.875 -69.625 L 64.875 0 L 19.78125 0 L 19.78125 -147.171875 Z M 64.875 -147.171875 "/></g></g></g><g fill="#000000" fill-opacity="0.4"><g transform="translate(1528.427965, 284.523845)"><g><path d="M 58.28125 -2.90625 L 1.0625 -147.171875 L 52.21875 -147.171875 L 84.921875 -50.90625 L 120.796875 -147.171875 L 168.015625 -147.171875 L 74.109375 70.15625 L 26.90625 70.15625 Z M 58.28125 -2.90625 "/></g></g></g><g fill="#c9ddff" fill-opacity="1"><g transform="translate(189.054044, 272.867471)"><g><path d="M 7.125 -150.859375 L 7.125 -185.15625 L 153.234375 -185.15625 L 153.234375 -150.859375 L 102.59375 -150.859375 L 102.59375 0 L 57.5 0 L 57.5 -150.859375 Z M 7.125 -150.859375 "/></g></g></g><g fill="#c9ddff" fill-opacity="1"><g transform="translate(342.820334, 272.867471)"><g><path d="M 64.875 -195.171875 L 64.875 -125.546875 C 74.195312 -141.015625 89.054688 -148.75 109.453125 -148.75 C 126.335938 -148.75 140.007812 -143.125 150.46875 -131.875 C 160.925781 -120.625 166.15625 -105.328125 166.15625 -85.984375 L 166.15625 0 L 121.328125 0 L 121.328125 -79.921875 C 121.328125 -89.410156 118.820312 -96.75 113.8125 -101.9375 C 108.800781 -107.125 101.898438 -109.71875 93.109375 -109.71875 C 84.316406 -109.71875 77.410156 -107.125 72.390625 -101.9375 C 67.378906 -96.75 64.875 -89.410156 64.875 -79.921875 L 64.875 0 L 19.78125 0 L 19.78125 -195.171875 Z M 64.875 -195.171875 "/></g></g></g><g fill="#c9ddff" fill-opacity="1"><g transform="translate(520.851627, 272.867471)"><g><path d="M 82.296875 1.84375 C 60.835938 1.84375 43.25 -5.054688 29.53125 -18.859375 C 15.820312 -32.660156 8.96875 -50.988281 8.96875 -73.84375 C 8.96875 -96.707031 15.78125 -114.90625 29.40625 -128.4375 C 43.03125 -141.976562 60.65625 -148.75 82.28125 -148.75 C 103.914062 -148.75 121.851562 -142.066406 136.09375 -128.703125 C 150.332031 -115.347656 157.453125 -96.800781 157.453125 -73.0625 C 157.453125 -67.957031 157.101562 -63.207031 156.40625 -58.8125 L 55.125 -58.8125 C 56 -52.3125 58.898438 -46.992188 63.828125 -42.859375 C 68.753906 -38.722656 74.070312 -36.65625 79.78125 -36.65625 C 85.5 -36.65625 89.765625 -37.226562 92.578125 -38.375 C 95.390625 -39.519531 97.453125 -40.660156 98.765625 -41.796875 C 100.085938 -42.941406 101.804688 -44.832031 103.921875 -47.46875 L 152.71875 -47.46875 C 148.488281 -32.695312 140.046875 -20.785156 127.390625 -11.734375 C 114.734375 -2.679688 99.703125 1.84375 82.296875 1.84375 Z M 110.515625 -87.03125 C 109.804688 -93.894531 106.8125 -99.476562 101.53125 -103.78125 C 96.257812 -108.09375 90.019531 -110.25 82.8125 -110.25 C 75.601562 -110.25 69.535156 -108.09375 64.609375 -103.78125 C 59.691406 -99.476562 56.617188 -93.894531 55.390625 -87.03125 Z M 110.515625 -87.03125 "/></g></g></g><g fill="#c9ddff" fill-opacity="1"><g transform="translate(680.947923, 272.867471)"><g/></g></g><g fill="#c9ddff" fill-opacity="1"><g transform="translate(753.479136, 272.867471)"><g><path d="M 19.78125 -185.15625 L 64.875 -185.15625 L 64.875 -34.28125 L 121.0625 -34.28125 L 121.0625 0 L 19.78125 0 Z M 19.78125 -185.15625 "/></g></g></g><g fill="#c9ddff" fill-opacity="1"><g transform="translate(873.22162, 272.867471)"><g><path d="M 60.921875 -163.78125 C 55.828125 -158.6875 49.585938 -156.140625 42.203125 -156.140625 C 34.816406 -156.140625 28.570312 -158.6875 23.46875 -163.78125 C 18.375 -168.882812 15.828125 -175.171875 15.828125 -182.640625 C 15.828125 -190.117188 18.375 -196.40625 23.46875 -201.5 C 28.570312 -206.601562 34.816406 -209.15625 42.203125 -209.15625 C 49.585938 -209.15625 55.828125 -206.601562 60.921875 -201.5 C 66.023438 -196.40625 68.578125 -190.117188 68.578125 -182.640625 C 68.578125 -175.171875 66.023438 -168.882812 60.921875 -163.78125 Z M 19.78125 0 L 19.78125 -147.171875 L 64.875 -147.171875 L 64.875 0 Z M 19.78125 0 "/></g></g></g><g fill="#c9ddff" fill-opacity="1"><g transform="translate(951.291556, 272.867471)"><g><path d="M 119.46875 -46.546875 C 125.976562 -52.796875 129.234375 -61.722656 129.234375 -73.328125 C 129.234375 -84.929688 125.976562 -93.894531 119.46875 -100.21875 C 112.96875 -106.550781 105.5 -109.71875 97.0625 -109.71875 C 88.625 -109.71875 81.148438 -106.597656 74.640625 -100.359375 C 68.128906 -94.117188 64.875 -85.191406 64.875 -73.578125 C 64.875 -61.972656 68.128906 -53.003906 74.640625 -46.671875 C 81.148438 -40.347656 88.625 -37.1875 97.0625 -37.1875 C 105.5 -37.1875 112.96875 -40.304688 119.46875 -46.546875 Z M 64.875 -127.921875 C 74.90625 -141.804688 89.28125 -148.75 108 -148.75 C 126.726562 -148.75 142.597656 -141.671875 155.609375 -127.515625 C 168.617188 -113.367188 175.125 -95.304688 175.125 -73.328125 C 175.125 -51.347656 168.617188 -33.320312 155.609375 -19.25 C 142.597656 -5.1875 126.859375 1.84375 108.390625 1.84375 C 89.929688 1.84375 75.425781 -5.890625 64.875 -21.359375 L 64.875 0 L 19.78125 0 L 19.78125 -195.171875 L 64.875 -195.171875 Z M 64.875 -127.921875 "/></g></g></g><g fill="#c9ddff" fill-opacity="1"><g transform="translate(1128.79531, 272.867471)"><g><path d="M 64.875 -147.171875 L 64.875 -119.75 C 75.425781 -139.082031 89.492188 -148.75 107.078125 -148.75 L 107.078125 -102.859375 L 96 -102.859375 C 85.625 -102.859375 77.84375 -100.394531 72.65625 -95.46875 C 67.46875 -90.550781 64.875 -81.9375 64.875 -69.625 L 64.875 0 L 19.78125 0 L 19.78125 -147.171875 Z M 64.875 -147.171875 "/></g></g></g><g fill="#c9ddff" fill-opacity="1"><g transform="translate(1234.031552, 272.867471)"><g><path d="M 109.453125 -46.671875 C 115.960938 -53.003906 119.21875 -61.972656 119.21875 -73.578125 C 119.21875 -85.191406 115.960938 -94.117188 109.453125 -100.359375 C 102.953125 -106.597656 95.476562 -109.71875 87.03125 -109.71875 C 78.59375 -109.71875 71.117188 -106.550781 64.609375 -100.21875 C 58.109375 -93.894531 54.859375 -84.929688 54.859375 -73.328125 C 54.859375 -61.722656 58.109375 -52.796875 64.609375 -46.546875 C 71.117188 -40.304688 78.59375 -37.1875 87.03125 -37.1875 C 95.476562 -37.1875 102.953125 -40.347656 109.453125 -46.671875 Z M 28.484375 -19.25 C 15.472656 -33.320312 8.96875 -51.347656 8.96875 -73.328125 C 8.96875 -95.304688 15.472656 -113.367188 28.484375 -127.515625 C 41.492188 -141.671875 57.363281 -148.75 76.09375 -148.75 C 94.820312 -148.75 109.195312 -141.804688 119.21875 -127.921875 L 119.21875 -147.171875 L 164.3125 -147.171875 L 164.3125 0 L 119.21875 0 L 119.21875 -21.359375 C 108.3125 -5.890625 93.710938 1.84375 75.421875 1.84375 C 57.140625 1.84375 41.492188 -5.1875 28.484375 -19.25 Z M 28.484375 -19.25 "/></g></g></g><g fill="#c9ddff" fill-opacity="1"><g transform="translate(1411.535351, 272.867471)"><g><path d="M 64.875 -147.171875 L 64.875 -119.75 C 75.425781 -139.082031 89.492188 -148.75 107.078125 -148.75 L 107.078125 -102.859375 L 96 -102.859375 C 85.625 -102.859375 77.84375 -100.394531 72.65625 -95.46875 C 67.46875 -90.550781 64.875 -81.9375 64.875 -69.625 L 64.875 0 L 19.78125 0 L 19.78125 -147.171875 Z M 64.875 -147.171875 "/></g></g></g><g fill="#c9ddff" fill-opacity="1"><g transform="translate(1516.771592, 272.867471)"><g><path d="M 58.28125 -2.90625 L 1.0625 -147.171875 L 52.21875 -147.171875 L 84.921875 -50.90625 L 120.796875 -147.171875 L 168.015625 -147.171875 L 74.109375 70.15625 L 26.90625 70.15625 Z M 58.28125 -2.90625 "/></g></g></g></svg>